<svg xmlns="http://www.w3.org/2000/svg" width="7108" height="4063.69" viewBox="0 0 7108 4063.69">
  <defs>
    <style>
      .cls-1, .cls-2 {
        fill: #e8e8e8;
      }
      .cls-2 {
        stroke: #b3b3b3;
        stroke-width: 2px;
      }
      .cls-3 {
        font-size: 44.16px;
        font-family: Arial;
      }
      .cls-7 {
        fill: #f0f;
      }
    </style>
  </defs>
  <g>
    <path id="CZ-JC" class="cls-1" d="M-744.56,1184.54l17.89,8.71,42.17-29.39,19.63,26.6,32.53-23.35,8.83,18.82,19.52-2.09-7.9,11.5,42.63,9.76,18.59-27.42,26.95,10.81,6.74-20.57,16.26,8.83,17.66-33.34-5.46-18.59,14.75,3.72,16.38-18.58,35.78,5.11-.81,45.19,30.43.69,5.35-12,19.51,13.36-4.06-17.2,29.62,13.83,49-12.55,14.18,9.06,18.12-49.72,50.07-5.69,26.14,35.08,7.08-8.24L-147.1,1144l-2.79,20,9.76-9.64,26.95,9.88,21.49-27,28.23,10-7.79-34.74,21.5,27,17.31-11.73,22.3,28.58,13.36-23.12,87.12,23.12,30.44-20.57-7.55,41.36,54.48-2L181,1200.91l3.37-25.09,34.27-31.13,55.76-16.61-14.76-30.55,8.13-48,17.66,3.25-3.83-16.15,20.91-7.43,5.11-19.17,12.55,26.37h8.13l27.65,4.76,33.57,43.22L400.4,1064l22.3,2.44,14.87,54,27.3,14.75h0l10.34-3.13h0l5.58-6.62h0l10.68,41.7-38.22-.35-5.92,15.45,34.39,50.65-15.45,14.52,8.24,28.81-27.18,46.12,14.64,5.46-27.54,77.49,47.4,33.57-30.67,36.59,78.65,93.17,13.24,2.79,40.31-37.06,34.16,40,44,3.49-3.95,32.87-26.72-6.5,25,19.51,25.68-10.57,17,41.71h10.1l17.31,8.13,26.26-32.18,68.77,29.39-4.18,20.21,15-15.8,79-2.2L920,1700l-14.52,42.75,91.77,77.84,18-23.93,27.76,21.72,36.83.35,14.87-19,19.51,9.41,8.83-16.61,24.28,10.8,5.81,20.21-17.43,1.39,37.87,16.85-9.4,9,19.75,19-12.09,4.41,6.62,15.1-45.65-2.9,1.28,24.74-14.64,5.11,8.36,24-23.81,8.71,8.71,19.17-48.55,44.73,7,13.12,14.88-14.52,16.26,6.74.46,28.69,58.2,16.27-6.73,15.8,13.24,11.85h0l-19.75,10.33-8,21.61,11,1.51-20.8,6.39-10,24.86h0l-27.3-8.13-14.18-36.83-34.38-24.74-13,10.57-32.3-10L937.33,2038l-73,2.33L845,2017l-18.12,65.87-38.8-10.46-36.94,27.07-30.32,1.16,9.18-30.32-20.1-30.55,6.16-20.1-93.17-9.87-7.43-26-67.73.82,1.63,37.4-22.54,35.67,16.38,103.62-8.13,47-13.48,2.32,13.83,49.26-13,.58-19.64,70.4,28.11,30-4.18,16.38L505.07,2394l-71-19.06-7.79-16.26-74.69,2.21-1.4,71.79L265,2506.76l-15.46,58.09,9.18,78.3L238,2673l-38.57.82-17.2-44.38-25.32,5.23-13.48-35.09-52.5,38.57-17.2-16.61-44.49-3.49L-5.15,2568.8l-27.29,8.25,12.19,28.69-26.48,57.5L-92,2655.81l2.09,33.22-33-3.83-25,35.78-9.87-18.82-55.41-27.53-31.25,6.15-53-24.74-62.84-7.55-16.5,13.47-21.14-4.76.58-12.08-30.9,7.43,1.74-18.35-28.23-10,5.69-24.39-18.58,3-20-20.1,15.1-21.84,29.51.11,7.08-33.8-26.72-3.95-32.52-50.3-49.26-8-86.54-85.61-64.59-10.81,2.09-37.4-23-50.53-30.21-9-27.07-80.74-23.23,13.24-46.35-3.6L-894.76,2107l7.55-16-22.31,17.54-29.5-51.93-31.14,4.07h0L-985,2032l7.9-53.67,29.16-49.83,17.08,9.29,16.84-17.89-6.27-52.39-19-26.49,18.24-5.57-8.83-29.28,11.15-22.88-11.73-8.25,43.79,16.26,29.28-37.29,37.75-6.39-9.87-3.83,7.55-34.5,28.69-13.24-28.46-39.5h0v-6.74h0l6.85-22.42,11.62,3.48-4.65-13.47,20.91,2.44,3.72-23.58-22.88-.47-7.44-34.38,28.35,2.32,8.59-23-16-10.34,2.67-19.28,52.39-22.66-3.25-27,22.31-36.94-33.23-55.41,5.12-37.29,24.85-19.4-23.46-29,4.88-51.57-21.72-3.49,3.83-12.2h0v-5.81h0Z" transform="translate(2503 1342.71)"/>
    <path id="CZ-JM" class="cls-1" d="M3333.65,2244.8l-50.88,23.36-8.36,22.3-47,15-32.18,1.86-66.68-48.67-58.9,50.07-34.15.93L2990,2260.49l-16.15,4.41-28.46-28.34-87.48-26.26-42.75,48.1-45.89,23.7-23.11,70.62-46.82,32-46,85.39,10.22,23.81-42.05,42.05,5.46,33.34-36.25,49.61-23.58-9.88,9.18-31.48-26.49-119.3-23.58-8.72-13,18.36-35.31-8.37-35,17.66L2398.15,2461l-11-25.91-23.23-8.71-45.08,15.56-19.16-84-73.42-1.74-56-50.53-22.3,23.81-52.74-12-20.91,10.34-15,53.9L2001,2440.2l-20.45,2.21-19.28-30.32-10.46,24.16-57.5-15.68-182.85-6-115-53.21-45.19-42.17,7.09-28.57-15.8-7.21-9.87,13.25-14.76-31-26.72,6.74-.69-12.9,13,6.39-7.67-15.1-12.66,10.34-11-28.92-10.45,12.08L1436.74,2233l10-12.55-13.25-15.8-63.54,4.3-28.11,36.94L1297,2231.21l-18.12,8.49-78.29-64.94h-41.24l-39.27-18.94h0l10-24.86,20.8-6.39-11-1.39,8-21.73,19.86-10.33h0l.23-11.27,27.42-4.65,12.66,27,25.44,5.93,13.36-41,47-6.39,24.28,33.46,30.32-53.91,37.29-6.85L1411,1992l59.71,2.68,10.34-47.63,34,15.33,17.2-15.33-2.33-19.29,30.32-8.48,8.48,28.23,28.81,18.82,27.19-7.09,11.38-26.71,56,26.83,2.68-13.47,61.8-11.16-18.94-19.51,10.23-12.9,74.11-6.73,14.52-42.52,25.33-3.95,20.44-25.1,2.79-21.25-18-7.9,7.32-16.85-25.67,12.2,3.49-30.78-13.6-13.13,7-15.92,43.22-17.19.46-24.51-38.1-18.94L1867,1605.3l37-8-31.25-29.5L1874,1543l22.42-10.1,9.29-43.68,71.09-34.85h9.3l21.84-20.56-15.8-41.71L2005.5,1345l-15.34-3.25-5-43.1,25.9-52.73-37.52-37.76,33.57,10.34,34.39-49.37-9.41-25.44-23,.69-15.57-20.44,19.63-18.71-.58-30.08h0l15.69,13.94,11.38-35.55,26.49-7.32,4,19.52,44.95-21.15,18.13,16.27,36.82.46,15.8-65.63,52.28,16L2257,993.9l28.81,20.1,15.34-12.78,36.24,6.28,80.51,43.09,29.5-4.18h0l-16.61,13.36,7.08,27.42-52.27-12.78-9.41,63,101.3,18.59-23.47.81-6,29.86-18.12,4.88,9.64,84.8,22.31,9.18,10.45,24.28-29.5,12.43-3.84,26.13,66.22,49.61,34-33.92,20.57-50.54-32.3-74.11L2551,1216l38.11,8.59,47.39,104.91,14.76,5.8.69,43.1,43.34,12.2,10.91-29.27,7.44,20-30.9,24.16,2.79,22.54,112.91,61.1,20.45,80.62h0l-30.9,47.4,18.82,22.88-10.69,25.79,30.55,38.8-21.26,24.4,41.13,2.67,12.66-15.92,5.34,14.76-16,58.08-37.64,7.9-9.41,47.51-28.81,1.28-4,40.31,35.9,5.81,73.3-29.62,18.36,43.68-10.34,51.92,30-10.1,1.05,12.31,15.91-4.76,9.76,31.83,62.26-1.74,26,15-6.74,44.38,24.16,5.92,18.59-12.54,40.54,50.88,34.5-19.28,17.54,8.71,16-17.54,11,23.93,42.87,10.22L3219,2134.1l65.64,19.4Z" transform="translate(2503 1342.71)"/>
    <path id="CZ-KA" class="cls-1" d="M-1662.29-309.74l59,43.33h0l28.11,23.7,48.09-7.2,27.88,20.21,17.66-14.29,17.54,17.08,18.59-3-.35,38.45,18.47,19.4,19.28-20.33,52,16,27.18-18.35L-1300-153l-10.69,28.23h-2.55l9.29,34.73-18.82,37.18,19.52,4.41,2.32,37.87-15.57,9.88L-1281,24.94l-22.89,31.48,29.39,3.95,14.64,61.11,12.55.46-3.84,18-18.82-.46,17.89,32.64-48.09-7.44h0l-.58,1.28h0l-7.21,12.08,16.73,13.36,29.74-3.48,29.51,46.35h0l-20.8.46-4.29,35.9,21.95,4.06-18,36.6-51.12,4.87.7,84.92-33.11-8.82-16.73-23.94-6,11.16-21-24.05-55.07,1.05-10.92-17.2-82.94,78.42-13.83-5.35-5.69,18.71-42,7.9h0v12.66h0l6.39,37.06-31.83,30.66-12.2-4.41,3.72,10.11-33-21.61-46,16.85-44.84-25.56-22.77-1.28-15.68,18.35L-1799.6,504h0l.35,2.09h0l-19.63-2.09-13.6,17.54-28.11-5.11,9.76,23-41.59,5.11,8.25,28L-1920.3,532l-26.49,5.69-27.64,31.36-45.66-19.28h0l-6.5-27.41-77.25-34.62,29-46.12-9.64-15-31-22.65-29.74,17.19-1.05-29-30.31-4.07-1.63-17.77-34.5-2.44-31.49-36.24-10.57,11.5-11-33.11L-2325,301l14.64-29.51-28.35-34.27-17.42,5.11-33.46-24.51-5.69-53.78,22.65-43.1-28.11-42.29,8.48-7.32-14.87-.81-9-23.47-15.33,4.42-10.11-40.54-24.16,4.53L-2503-11.53l6.51-21.38,44.37-21.72-22.07-35.32,6.5-15L-2493.24-124l87.59-6.73,16,26.6,1.16,55.06,56.81,2.91,11.73,33.34-21.84-13.36-6,20.79L-2291,35.75l-19.75,39.61,15.8,32.53,49.37,6.62-14.17-14.29,16-17.66-16-24.16,12.31-19.4L-2252,1.59l30.67-.58-7.55-33.34,19.4-37.29L-2180-82.4l.23-47.63,33.46-1.16,11-31.25,28.47-21.84,21.84,8.95-2.68-35.2,26.49-42.75L-1892.77-286l35.44,32.18,30.2-57.85,62.85-27.89,15.8,29.63,9.52-46.82Z" transform="translate(2503 1342.71)"/>
    <path id="CZ-KR" class="cls-1" d="M1140.51-880l46,1,79.23,35.19,27.18,29.86,76.67-9.18,38.34-21L1446.5-767l9.64,56.46,24.39,5.69,77.14-34,34,12.09,11.84,65.52,21.26,23.93-37.06,27.53,38.34,23.93,20.8-24.74,15.8,5.8,9.87-47.63,36.94-39.49,70.63,29.16,18,29.5L1831-644.42l16.85-61.22,44.84,5.11,8.36,12.89,60.41-2.78,83.06,91.07,23.93,46.47L2026.76-536l6.5,33.93-24,10,13.6,22.88-42.06,43.91-16.61,9.64-33.57-18-18.82,44.49-38.22-.35-3.6,20.68-34.62,13,9.53,26.72L1826-343.31l-18.12,31.25,16,36,28-5.23,16.27,14.87L1862-252.35l17,6.5,17.08,41.71L1922.55-230l59.13,5.69,1.4,50.3,21.72,32.53,17.08,15.69,38.33-2.79,55.41,92.47,73.54,70.74-.12,82.83L2218,145.06l-3.83,17.19h0l-12.9,7.44-85.38-44.26-18.24,47-49.84,29.39-31.71,1.62L1998.29,230l-36.24,13.13,12.66,26.25-46.23,26.49L1951.13,330,1898,312.81l-35.43,13.71-1-20.91-7.56,15.1-45.77,11.73-29.62-37.17L1747.37,294l-28.58-34.74L1681,253.91l-11.62-41.24-55.87.58.11-54-20.21-1.39-.12-19.05-53.67-3.72L1516,116.71l-.11,11-31,3.25L1483,156l-33.8-.58-19.4,27.07-32.07-14.41,5.81-33.11-37.29-24.39-35.66,22.54-.93,30.2-15.22,13.13-21.6-7.56-17.31,22.42-42.75-24.62-2.44,12.66-51.82-10.46,5.58,10.23-16.61-.82-19-27.53-16.61,25.68-15.22-10.58-16,8.83-.58,30-34.51,4.76h0v7.31h0L1028.29,239l-11.73-15.22h0L1020,194.2l-31.71-26.14-14.52,8.83-20.45-17.66-35.66-.58,27.06-16.49-18.82-18,42.17-46.93-5.34-36.36L942.44,24.59l-3.6-32.52,16.73-12.32-7-48.56-28.23-26L873.78-64.28,830.57-84.6,801-71.83,769.12-87.16,779-125.61l-36.36-15.45,7.44-18.36-60.76-9.41L680.36-188l10.69-10.57-30.9-22.77L675-241.55l25.91,2.9-5.58-25.9,21.49-7.9-2.21-49.37-25.32-20.33,14.52-38.8-32.76-46.82,32.53-32.75h0l82.13,46.58,19.86-4.88-4.18-15.68,29.74-31.83,48.56,24.86,25.56-2.91,34.27,29.16,11.38-21.26,13.13,46.58,52.27-14.52L1027-422.31l-16.49-36.13,43.32-18.7-.69-22.19,19.28,12.2-2.09,23.93,5.34-11.73,39,29.5L1142.48-466l32.88,26.84-4.53-17.77,45.07-3.49-23.12-45.07-20.09-10.23,11.61-4.64L1167-533.25l8.25-12.19-23.7-11.27L1184-611.78l-38.69-37.75L1163-675.2l-25.67-98.17,17-38.91-37.17-37.06-4.77-35.43h0Z" transform="translate(2503 1342.71)"/>
    <path id="CZ-LI" class="cls-1" d="M573.14-1290.32l20.33,19.52,16.84-.35,5.81-17L662-1268.48l-.12,35.78,38.92-3.6.46-31.94,28.12-15,2.2,55.76,19.17,10.57,53.79-30.43-2,21.95,36.95,9.53.58,29.62L858.34-1173l-25.1,36.25,9.64,69.7,33.58,47.86,47.28,17.77,14,25.21,5.58,94.56,23,3.95L1011-931.36l101.41,46.59h0l4.77,35.43,37.17,37.06-17,38.91L1163-675.2l-17.77,25.67L1184-611.78l-32.42,55.07,23.7,11.27L1167-533.25l17.31,12.9-11.61,4.64,20.09,10.23,23.12,45.07-45.07,3.49,4.53,17.77L1142.48-466l-27.76,20.56-39-29.5-5.34,11.73,2.09-23.93-19.28-12.2.69,22.19-43.32,18.7L1027-422.31l-10.69,17.89L964.05-389.9l-13.13-46.58-11.38,21.26-34.27-29.16-25.56,2.91-48.56-24.86L801.41-434.5l4.18,15.68-19.86,4.88L703.6-460.52h0l-46.35-15.8-6.39-36.25-31.37-27.3-26.83,10L557-595.16l-31.48,3.48-8,17.54-45.66-44.72-17.31,3.13,7.9,16-20.1,8.59,6.74,23.58-61.68,27.88,3.48,22.89L369.5-480.51,350.45-466,339.76-475l-13,34.74-63.66-14.41-7.67,32.41-27.65,11.39L226.15-392l-37.29-7.32-9.3,10.58L165-401.28l-21.72,23.12-22.77-2.33-13-60.75L75.71-416.73,37.37-438.92,27.15-410.69l-18-21.37h0l-13-34.85-31.83-4.88-36.71-96.42L-99.71-588l-21.14-46.24,2.32-46.81-20.33-1.75,6.63-29.62,30.9-25.44-.58-48.09,16-6.16h0l9.18-3.37h0L-65-817.86l2.55,11.39,15.34-5.35-13.48-11,11-38.79,31.25-23.82-10-9.06L-18-927.87l-14.52-9L.78-944.95l50.76,33,29.63-2.32,17.19-66.57,36.48-5.22,17.31-28.69h0l72.95,32.87,19.28-5,11.39,30.43,26.83-10.11,26.49,16.5,31-4.65,35.2-85,19.86,6,21.61-13.83,26.6,17.31L447.1-1044l61.68,22.77,45-7.67-8.13-41.59,12.89-22.42-17.77-29.16,25.79-26.6,8.25-46.7L559.2-1226l-19.75,12.31-20.79-20.56,17.54-34Z" transform="translate(2503 1342.71)"/>
    <path id="CZ-MO" class="cls-1" d="M3427.4-96.11l15.1,3.26L3413.69-24.2l41.71,34.39-6.74,48.44-41.36,1.16-13.24,34.39-109.2,24-10.11,17,53.44,52.5,6.74,26.95L3362.81,227l6.85-21.26h14.87l34.62,31,42.64,80.62,7,46.93,53.2,14.41-1.39,26.83,44.95,35.31,53.09-8.71,35.2-43.68,30.67-.46,23-21.61,3.49,12.89,39.14,8.95-.69-51L3728.74,333l-15.45,14.17-6-13.59.7-23.81L3738,289.11l58.44,36-3.84,17.77,17.89,15.69-9.41,14.17,23.35,32.41,18.13-5.34L3864.54,425l18.7-12.32-4.18-13.82,40.66.58,8.6,42.52,65.75,12.08,4.76,48,39,32.52,11.86-25.2,10.8,8.36,12.31-14.64L4053.2,480l37.29,19.87,63.89-2.67,3,16,59,39.26,46.12,4.65,14.64-12L4269.74,517l34.5,7.32,7,26.72-14.29,40.19,41.36,30.44-22.77,15L4302,676.3l61.34,130.8L4359.65,847,4405,878.2l42.51-2.09,9.65,34.62,24.86,11.5,42.51-14.87,29.4,18.82-4.19,35.89,20.56,87,13.6,3.84-.59,55.06,21.73,18-18.47,47.28-59.71,21.61-29.28,28.22-80.15-29.27-62.85,18.93-18.7-2.9-6-19.52-32.07,3.72-32.06,26.26,11,39.84-57,49.72-16.5,43.57-39.73,27.29-34.73-6.39h0l-41.59-14.86,1.28-43-62.27-52.16-9.76-42.28-30.78-3-17.77,15.45-53.21-10.92-38.92-43.91-30.2,12.54-9.41-18.24-135.92,27.19-25.67-55.07-60.76-1.16h0L3602.35,1103l-23.7-1.62-19.4,32.76-9.87-10-12.32-20,21.84-28-51.35-66.57-38.21-16.14-4.77-32.65-29.74-39.14-25,17.89L3379,921.06l-10.69-45.65,15.33-48.91h-2.55l-7.55,10.11-36.71-30h0l-8.37.46h0l-11-7.78-39.85,29.86-63.66-44.26-15.68,33.57-26.6-6.39-12.2-23.47-56.81,4.53-60.06-81.54-14.87-10-20,10.11h-5.34L2992.23,725l-2-13.35-74.7-32.07-36.71,12.66,9.06-66.68-40.54,23.24-40.31-54.25,2.44-17.9h0l5.23.47h0l21.72-35.32-14.17-16.72,22.3-18.59h4.65l13.13-41.94L2815,424l17.54-10.11-.35-40,67.38-79.81-13.59-66.91,30.32-30.55L2907,162l44.85-48.21,19.86.12,7.44-24.28,31.36,5,40.31-62L3092,54.1,3106-19.55h0l25.33-4.3,2.09-21.49,39.38-8.36L3226.31-45l47.86-14.87,24.4,20.44,76.67-56.34-.23-44.61,31.36,11.74Z" transform="translate(2503 1342.71)"/>
    <path id="CZ-OL" class="cls-1" d="M2565.31-331.81l60.29,42.75,24.52-15.34,57.27,34.27,60.4,2.91.93,19.05,34.16,20.45,63.43-7.9-3,35,50.18,52.51,46.12,23.93,60.64-16.73-11.62,24.28,15.8,7.9-14.17,40.55,10.57,30.78,14.52-.7L3037.42-65l26.14-1.51,32.64,9.18L3106-19.55h0L3092,54.1l-41.24-21.49-40.31,62-31.36-5-7.44,24.28-19.86-.12L2907,162l9.3,34.62-30.32,30.55,13.59,66.91-67.38,79.81.35,40L2815,424l47.4,40.54-13.13,41.94h-4.65l-22.3,18.59,14.17,16.72-21.72,35.32h0l-5.23-.47h0l-2.44,17.9,40.31,54.25,40.54-23.24-9.06,66.68,36.71-12.66,74.7,32.07,2,13.35,10.11-13.24h5.34l20-10.11,14.87,10,60.06,81.54,56.81-4.53,12.2,23.47,26.6,6.39,15.68-33.57,63.66,44.26,39.85-29.86,11,7.78h0l8.37-.46h0l36.71,30,7.55-10.11h2.55l-15.33,48.91L3379,921.06l30.9,18.48,25-17.89,29.74,39.14,4.77,32.65,38.21,16.14,51.35,66.57-21.84,28,12.32,20,9.87,10,19.4-32.76,23.7,1.62,11.38,41.94h0l-15.68,43.91-60.87-18.7-3.6,30.32-54.37,26.14,13,27.88-23.35,19-.81,23.23h0l-4.65,10.92-54.6-.46-29.16-40.43-28.34,10.46-1.51,27.64-16.38-19.51-26.6,3.6,28.81,54.13L3313.32,1369l-40.89,3.25-10-16.14-55.3,17.77-25.55-8.48,12.31,29.16-44,45.88L3123,1402.12l-19.75,5.81-40.2-20.22-17.65,12.2,11.85-40-17-14.75-37.76,49.48,23.47,64.25-35.67,19.63L2961.1,1526l-22.89,12-44.84-6.39-17.77,15.1-19.4-12.31-17.31,46L2819,1569.4h0l-20.57-80.62-112.91-61.1-2.79-22.42,30.9-24.17-7.44-20-10.91,29.28-43.33-12.2-.7-43.1-14.76-5.81-47.39-104.9-38.11-8.59-23.58,23.35,32.18,74.11-20.56,50.65-34,33.92-66.1-49.6,3.84-26,29.5-12.43-10.45-24.39-22.31-9.18-9.64-84.8,18-4.76,6-29.86,23.46-.81-101.3-18.59,9.41-63,52.28,12.78-7-27.42,16.61-13.47h0l3.37-36.72,12.66-1.62-19.75-24.16,2.56-28.35,45.07-41,1.28-56.92-16.26-21.72L2431.49,840l23.58-34-20.68-16.84,12.78-15.22-46.24-47.4.47-34.73-25.91-17.89,2.21-51.12,31-23.93-58.32-201,36.83-3.6L2389,404.7h0l5-7.67h0l14.86-28.7,46.59-23.81,2.9-44.49-16.73-16.85,25.56-26.36-18.82-37.3,23-13.35,41.48-100-1.28-34.5h0l19.4-2.67,17-37.75,59.71.58,20.45-35.67,24.39,46.47L2683,20.41l-27.3-43.33,18.94-35L2656.85-98l-58.78-21.61-39.61-121.28-53.21-30.09,23.47-58Z" transform="translate(2503 1342.71)"/>
    <path id="CZ-PA" class="cls-2" d="M2509.9,71.41l1.63.23h0l1.28,34.5-41.48,100-23,13.35,18.82,37.3-25.56,26.36L2458.32,300l-2.9,44.49-46.59,23.81L2394,397h0l-5,7.67h0l-1.74-10.46-36.83,3.6,58.32,201-31,23.93-2.21,51.12,25.91,17.89-.47,34.73,46.24,47.4-12.78,15.22,20.68,16.84-23.58,34,44.84-4.18,16.26,21.72-1.28,56.92-45.07,41-2.56,28.35,19.75,24.16-12.66,1.62-3.37,36.72h0l-29.5,4.18-80.51-43.1-36.24-6.39-15.34,12.78-28.81-20-18.82,17.77-52.39-16-15.68,65.63-36.94-.46-18-16.38-45,21.26-3.95-19.63-26.48,7.32-11.39,35.54-15.68-13.94h0l-44.49-50.18L1920,1006.22l-16.5,7.08-18.12-15.21,3.37-17.89-82.25-63.43-47.86,1.74-8-18.47-39.14,10.22-25.91-42.87-21.84-9.52H1657l-35.78-3.14-17.42-34-32.88,37.4h0v8.13h0l1.86,12-18.93,4.88,8.13,16-43.92,9.06-75.16-53.55L1459.51,812l-14.76,11.85-44.84-34.38-33.57,3.6,7.43-39.15L1327,756.22,1296.29,717l-20.56,4.64-1.86-17.3L1251.45,697l-19.63,14.75-9.18-16-47.86,13.47-19.29-34.61-81.43-52.63h0l-.12-59.83,24.86-7.2,17.31-41.12-21.72-23.23,15.68-32.88-70.51-36.94,11.26-27.42-16.37,7-.35-20.79-33.23,3,3.14-13-32-3.26-32.52-32.76,11-15.21,24.28,1.16-22.77-21.38,34.62-4.41-10.69-40,25.56-1.74L972,239.27l7.9-14.28,33.22,9.4,3.49-10.57h0L1028.29,239l37.17-22.31h0v-7.31h0l34.51-4.76.58-30,16-8.83,15.22,10.58,16.61-25.68,19,27.53,16.61.82-5.58-10.23,51.82,10.46,2.44-12.66,42.75,24.62,17.31-22.42,21.6,7.56,15.22-13.13.93-30.2,35.66-22.54L1403.51,135l-5.81,33.11,32.07,14.41,19.4-27.07,33.8.58,1.86-25,31-3.25.11-11,23.7,18.36,53.67,3.72.12,19.05,20.21,1.39-.11,54,55.87-.58L1681,253.91l37.75,5.34L1747.37,294l31.25,1.28,29.62,37.17L1854,320.71l7.56-15.1,1,20.91L1898,312.81,1951.13,330l-22.65-34.15,46.23-26.49-12.66-26.25L1998.29,230l17.78-26.49,31.71-1.62,49.84-29.39,18.24-47,85.38,44.26,12.9-7.44h0l54.36,51,76,24.4,42.86-62.5,39.15-16.5,30.9-76.21,10.81,4.77,25.55-30.44Z" transform="translate(2503 1342.71)"/>
    <path id="CZ-ZL" class="cls-1" d="M4128.71,1374.35h0l-41.59-14.86,1.28-43-62.27-52.16-9.76-42.28-30.78-3-17.77,15.45-53.21-10.92-38.92-43.91-30.2,12.54-9.41-18.24-135.92,27.19-25.67-55.07-60.76-1.16h0l-15.68,43.91-60.87-18.7-3.6,30.32-54.37,26.14,13,27.88-23.35,19-5.46,34.15-54.6-.46-29.16-40.43-28.34,10.46-1.51,27.64-16.38-19.51-25.09,2.9,27.3,54.83L3313.32,1369l-40.89,3.25-10-16.14-55.3,17.77-25.55-8.48,12.31,29.16-44,45.88L3123,1402.12l-19.75,5.81-40.2-20.22-17.65,12.2,11.85-40-17-14.75-37.76,49.48,23.47,64.25-35.67,19.63L2961.1,1526l-22.89,12-44.84-6.39-17.77,15.1-19.4-12.31-17.31,46L2819,1569.4h0l-30.91,47.4,18.82,22.88-10.8,25.91,30.67,38.68-21.26,24.4,41.12,2.79,12.78-15.92,5.35,14.75-16,58.09-37.63,7.9-9.53,47.51-28.69,1.28-4.07,40.31,36,5.69,73.3-29.5,18.36,43.67-10.46,51.93,30-10.1,1,12.31,15.92-4.76,9.75,31.71,62.27-1.74,26,15-6.74,44.38,24.17,5.92,18.59-12.66,40.54,51,34.61-19.4,17.55,8.83,15.91-17.54,11,23.93,42.86,10.22-10.45,39.5,65.63,19.4,48.91,91.65h0l58.09-9.41,82.94-102.11,105.48-5.57,30.44-131.27,19.4-18.94,98.74-1.74,48-23.47,30.2-35.31,18.47-55.41-5.81-65.52,26.26-43.45-5.23-42,25.32-46.94-8.47-48.32,40.66-39.27-.35-24.86,84.45-15.91,105.48-44.49,40-43.22,7.79-50.88Z" transform="translate(2503 1342.71)"/>
    <path id="CZ-PL" class="cls-2" d="M-1232,234.28l23.81-6.51,10.57,26.14,22.31-24.4,17.31,39,39.38-18.59h0l21.84,44.49-17.54,1.51-15.34,47.63,37.29,7.32,12.55-22.3,30.2-1.63,12.32,17.31,28.92-16,22.31,16.61-35.43,7.32,21.14,23.23,32.06,5.46,17.43,24.17,58.66-1.63h5.93l15.22-10.22,23.23,8.24,34.73,53.09,49.26-1.39L-768,493.91l41.47-2.09,29.27,23.82,21.73-1L-690,544.22-672.88,611l-27.53.35-10.34,59.83,12.43,31.94-20.8,17.2,9.64,32.87-17.3,31.48,19.63-6.62,18.35,18.12-39.73,18.36-20.79,39.38-25.79-21.84-42.75,23.58-25,33.69,9,33.11,20.56-15.92,28.69,11-40.19,10.22-2.32,17,31.6,27.19-19.52,10.8,17.89,4.53-8.25,11.38,48.21,13.37-17.43,121.62,7.56-10.1,20.67,9.52,1.86,51.47h0l-13.82,25.78h0v5.81h0l-3.83,12.2,21.72,3.49-4.88,51.57,23.46,29-24.85,19.4-5.12,37.29,33.23,55.41L-741,1461.48l3.25,27-52.39,22.66-2.67,19.28,16,10.34-8.59,23-28.35-2.32,7.44,34.38,22.88.47-3.72,23.58-20.91-2.44,4.65,13.47-11.62-3.48-6.85,22.42h0v6.74h0l28.46,39.5L-822,1709.27l-7.55,34.5,9.87,3.83-37.75,6.39-29.28,37.29L-930.54,1775l11.73,8.25L-930,1806.15l8.83,29.28-18.24,5.57,19,26.49,6.27,52.39-16.84,17.89-17.08-9.29-29.16,49.83L-985,2032l14.87,28.7h0l-45.19-2.33v42.41l-12.66,2.09-97.23-72.61-10.57-107-109.32-103.74-56.46,7.44-59.7-37.06-7.21-56.92-63.31-47.75,2.9-25.32-27.41-15.57-7.2-30.32-21.15-6.39-7.66-21-21.38-1.27-5-63.55-23.82-2.9-36-45.19-87.13-27.3-7.08,34.39-35.78-24.28-70.29-3.37-25.09-77.37-51.34-48.09-53.67-15.8-.58-30.44-24.4-38.34,11-75-8.14-14.41-15.56,9.53-33.34-18.35-30.9-131.86-33.93,2.44-6.62-110.24-36-1.16-47.74-26.6-40.2-63.2-1.86-29.51,74.35-41.82L-2111,703.6l10.69-40.54,24.51-3.95-.58-29.74,14.64-4.07,41.7-75.51h0l45.66,19.28,27.64-31.36,26.49-5.69,36.13,40.54-8.25-28,41.59-5.11-9.76-23,28.11,5.11,13.6-17.54,19.63,2.09h0l-.35-2.09h0l12.43,7.78,15.68-18.35,22.77,1.28,44.84,25.56,46-16.85,33,21.61-3.72-10.11,12.2,4.41,31.83-30.66-6.39-37.06h0V439h0l42-7.9,5.69-18.71,13.83,5.35,82.94-78.42,10.92,17.2,55.07-1.05,21,24.05,6-11.16,16.73,23.94,33.11,8.82-.7-84.92,51.12-4.87,18-36.6-21.95-4.06,4.29-35.9Z" transform="translate(2503 1342.71)"/>
    <path id="CZ-PR" class="cls-1" d="M59.56,118.23l2,3.71h0l21.15,6.62h0L92.44,141h0l-17,17,48.68-12.77,6.62,39.26,57.16,12.2,8,34.15L240,246l-5.11,33.11-62.5,25,3.72,23.69,17.19-5.69h0L188,348.47l13.36,18.12L189.9,388.9h0l-11.85-8-5.57,26.6L111.84,371,101.26,381.7l-16.38-9.65L72.69,387.74,55.61,380h0l-.23,2h0l-.93,16.73-31-1.28L-15,442.22l-40.43,13.13-23.11-8.25-5,45.07-15.33-16.26-46.7,5.81-13.25-17.89,20-15.45-17.42-4.54,17-32.75-36.83-7.9-4.41-55.42-28.23-2.43-7.43-38.11-23-8.36,11.15-18.59,37.17-10.45-47.74-38.69-27-1.63,36.13-20.67,27.54,1.74,22.53-25.67,12.43,1.51L-172.2,209l53-2.78-7.55-34.62L-114.23,154l29.51,11.5,35.08-26.84,43.22,6.85-4.07-10.45h0l-.35-8.48h0l53.55-14.41h0l16.39-3.71h0l-.82,7.2h0Z" transform="translate(2503 1342.71)"/>
    <path id="CZ-ST" class="cls-2" d="M9.14-432.06l18,21.37L37.37-439l38.34,22.19,31.83-24.51,13,60.76,22.77,2.32,21.72-23,14.52,12.55,9.3-10.58,37.29,7.21L227.77-411l27.65-11.38,7.67-32.41,63.66,14.52,13-34.74L350.45-466,369.5-480.5l21.37-36.25-3.48-22.89,61.68-27.87-6.74-23.59,20.1-8.59-7.9-16,17.31-3.13,45.54,44.72,8.13-17.54,31.37-3.48L592.54-530l26.84-9.88,31.25,27.19L657-476.44l46.35,15.8h0l-32.52,32.76,32.76,46.82-14.52,38.8,25.32,20.44,2.21,49.37-21.38,7.9,5.58,25.91-25.91-2.91L660-221.33l31,22.77-10.68,10.45,8.94,19.17,60.76,9.41-7.44,18.36L779-125.73l-9.87,38.57L801-71.94l29.62-12.78,43.21,20.33,46.59-30.55,28.23,26,7,48.56L938.84-8l3.6,32.65,20.33,16.26,5.34,36.36-42.17,46.93,18.82,18-27,16.49,35.67.7L973.92,177l14.52-8.83,31.72,26.14-3.49,29.51h0l-3.48,10.57-33.34-9.53L972,239.28l29.62,12.54L976,253.56l10.58,40-34.51,4.41,22.77,21.38-24.39-1.17-11,15.22L972,366.13l31.94,3.26-3,13,33.23-3.14.35,20.91,16.37-7-11.26,27.42,70.51,36.94-15.68,33L1116,513.78l-17.2,41.12-24.86,7.2.12,59.83h0l-32.88,38.69L1020,647.14l-26.49,22L988.09,689l23.47,26-16.84,18.94h0l-6.05-.47h0L953.36,722l-15.45,37.64-21.14,12L851.36,777l-21.84,24.51-14-6.16,4.29-13.59L802,791.31h0l-4.41-.12h0l-13.13,7.32-5.69,41.7L742.4,867.74l-3.6,35.44,8.13,32.06L798,941.51l15,32.88-7.09,34.27-21.37,14.87-34-11.62-6,15.8-13.71-4.41-9.29,39.38-47-34.74-18.24,18.71-46.58,8.24-23.82-16.14L575,1050.83l-19.75-19.06-25.56,3.84L519,1052.1l17.77,25.33-48.56,1.28,5.23,34.73-12.78.81h0l.35,8.6h0l-.35,2.56h0l-5.58,6.62h0l-10.45,3h0l-27.18-14.64-14.87-54.13-22.31-2.44-10.92,20.56-33.57-43.33-27.65-4.65h-8.25l-12.54-26.37-5.11,19-20.92,7.44,3.84,16.15-17.77-3.26-8.14,48L274,1128l-55.76,16.61-34.39,31.14-3.37,25.2-13.24-25.78-54.37,2,7.44-41.36L90,1156.19,2.87,1133.07l-13.36,23.12-22.3-28.58-17.31,11.74-21.49-27,7.78,34.74-28.11-10-21.49,26.95-27-9.87-9.64,9.64,2.79-20-29.86-17.08-7.08,8.25L-210.3,1100l-49.95,5.69-18.12,49.72-14.18-9.06-48.9,12.54L-371.08,1145l3.95,17.31L-386.64,1149l-5.23,12-30.44-.7.7-45.19-35.66-5.11-16.38,18.58-14.76-3.71,5.35,18.58-17.66,33.46L-517,1168l-6.74,20.68-26.84-10.8-18.58,27.41-42.64-9.87,7.9-11.51-19.51,2.1-8.83-18.94-32.41,23.35-19.64-26.6-42.17,29.39-17.89-8.71h0l-1.85-51.47-20.68-9.52-7.55,10.22L-757,1012.14l-48.21-13.47,8.25-11.27-18-4.53,19.52-10.8L-827,944.88l2.44-17,40.08-10.22-28.69-11-20.56,15.92-9-33,25-33.69L-775,832.2-749.21,854l20.8-39.38,39.85-18.36-18.36-18.12-19.63,6.62,17.31-31.48-9.65-32.88,20.8-17.19-12.43-32,10.34-59.82,27.53-.35-17-66.8,14.4-29.62-21.72.93-29.27-23.7L-767.68,494l4.19-40.89-49.26,1.51-34.62-53.09-23.35-8.25-15.1,10.23h-6l-58.66,1.62L-967.95,381l-32.18-5.58-21.14-23.11,35.54-7.32-22.42-16.61-28.92,16-12.32-17.31-30.2,1.62L-1092.13,351l-37.29-7.32,15.33-47.63,17.54-1.51L-1118.39,250h0l-4.06-14.06,20.44-16.49,39,4.06,8.24-42.51,20.91,8-10.69-24.51,13.6-9.76-5.35-29.39,13.59.93h3.84l44-42.52,24.17,10.34,40.31-11.27,8.48-29.5,17.42.35L-844.69,15l.11,17.08,83.41-1.28,3.48-17.19,18.47,4,44.27-51.11L-665.1,3.45-640-.5l13.13-44,43.68-4.54,38.57-30.66-3.84-25.45,41.36,5.93-10-49.49,26.83-21,140.68,26.13,40-4.76,2.67-19.05,68.77,26.6,6-11.27h0l1.86.35h0l20.09-31,21.27,8.72h0l8.71-5.46h0l21.6-9.53,44,11.15,14.29-73.18-21.14-54.6,20.21-10.8,44.84,22.3-11.61-15,16.49-14.52-3-21.72,52.05,6.27-17.31-78.18,19.16-4.76-4.06-16.15ZM-10.49,135.07h0l4,10.45-43.21-6.85-35.09,26.84-29.5-11.39-12.55,17.43,7.44,34.62-53,2.78,5.23-22.53-12.43-1.51-22.54,25.67-27.53-1.74-36.13,20.79,26.84,1.63,47.74,38.68-37.17,10.46L-239.57,299l23,8.37,7.43,38.22L-181,348l4.41,55.41,36.83,7.78-17,32.76,17.43,4.53-20.1,15.45,13.25,17.89L-99.48,476l15.34,16.27,4.88-45.08L-56,455.46l40.31-13.24,38.57-44.84,31,1.28.93-16.73h0l.23-2h0l17,7.79,12.32-15.68,16.37,9.64,10.46-10.81,60.75,36.48,5.58-26.6,11.85,8h0l11.5-22.3-13.71-21L192.69,322h0l-17.08,5.69L171.89,304l62.39-25,5.11-33.1-44-15.22-8-34.16-57.16-12.19-6.74-39.27L74.78,157.84l17-17h0L82,128.45h0l-21.26-6.51h0l-3.25-6.39h0l.81-7.2h0L41.9,112.07h0l-53.55,14.4Z" transform="translate(2503 1342.71)"/>
    <path id="CZ-US" class="cls-1" d="M-146.29-1316.57l28.81-8.83,25.79,32.3,32.41,11.38,37.87-28.81,40.08,20.91,8.25-38.8-2.09,41,34.38,8.94,3.6,22,31.25-10.23,38.11,49.26-36.6,102.34,18.36,8.49,70.16-30.09,2.67,43.44-16.49,13.13-18.12,65.41h0l-17.31,28.69-36.48,5.22L81.17-914.28,51.54-912l-50.76-33-33.34,8.13,14.52,9-10.22,33.34,10,9.06-31.25,23.82-11,38.79,13.48,11-15.34,5.35L-65-817.86-76.7-795.44h0l-9.18,3.37h0l-16,6.16.58,48.09-30.9,25.44-6.63,29.62,20.33,1.75-2.32,46.81L-99.71-588l27.3,19.75,36.71,96.42,31.83,4.88,13,34.85h0l-14.29-6.39,4.07,16.14-19.17,4.77,17.31,78.18-51.92-6.28,3,21.73-16.49,14.52,11.61,14.87-44.84-22.3L-121.66-306l21.14,54.6-14.29,73.3-44-11.27-21.72,9.53h0l-8.71,5.46h0l-21.15-8.72-20.09,31h0l-1.86-.35h0l-6,11.39-68.77-26.61-2.68,19.06-40,4.76L-490.5-170l-26.72,21,10,49.6-41.47-5.92,3.83,25.44-38.56,30.55-43.68,4.65-13.13,44-25.09,3.94-29.86-37-44.26,51.11-18.47-4-3.48,17.31L-844.69,32-844.81,15l-39.73,38.69L-902,53.29l-8.48,29.5-40.42,11.27L-975,83.72l-43.91,42.52h-3.95l-13.59-.93,5.46,29.39-13.59,9.76,10.69,24.51-20.91-8-8.25,42.51-39.15-4.06-20.44,16.49,4.06,14.06h0L-1158,268.55l-17.31-39-22.31,24.4-10.57-26.14-23.81,6.51h0l-29.51-46.35-29.74,3.48L-1308,178.05l7.21-12.08h0l.58-1.28h0l48.09,7.44L-1270,139.49l18.82.46,3.84-18-12.55-.46-14.64-61.11-29.39-3.95L-1281,24.94-1316.46-.73l15.57-9.88-2.32-37.87-19.52-4.41,18.82-37.18-9.29-34.73h2.55L-1300-153l-28.81-41.7-27.18,18.35-52-16-19.28,20.33-18.47-19.4.35-38.45-18.59,3L-1481.53-244l-17.66,14.29-27.88-20.21-48.09,7.2-28.11-23.7h0l-6.86-12.43,40.54-11.15,42.52-48.56,11.73-100.95,56.35,16.73,48.44-31,6.85,19.4,59.83,5.46,54.6-146,32.76-.35,13,28.92,33.57-8.13,2.67-45.42,54-33.11-4.88-37.4,19.52,5.81,26,49.72,54,21.49,30.9-44.61,30-14.75-11.85-23.59,31-39-17.31-46.7,33.57-15.1,46.47,7.43,65.17-35.54,44.84,23.81,20.56-27.3,14.41,11,38.68-14.41,82.71,13.59,5.93-25,38-3.14-11.85-40.19,13.94-40.43,39,4.76,17.77-28.69,37.18-19.87,42.28,26,49.49-13.25,12.2-23.23,142.19-56.34,9.87-45.19,35-12.78,38.92,18.35,47.86-14.4.69-15.1,39,5.92,10.68-63.08-90.61-30.9,6.63-8.71-14.64-9.76,26.6-12.66-3.49-18.94L-200.08-1212l-25.67-18.35,1.05-34,21.37-10.22,5.23-21.26-12.9-19.87,43.22-27Z" transform="translate(2503 1342.71)"/>
    <path id="CZ-VY" class="cls-1" d="M1074.06,621.93l81.43,52.63,19.29,34.61,47.86-13.47,9.18,16L1251.45,697l22.42,7.32,1.86,17.3,20.56-4.64L1327,756.22l46.81-2.32-7.43,39.15,33.57-3.6,44.84,34.38L1459.51,812l-16.62,42.64,75.16,53.55,43.92-9.06-8.13-16,18.93-4.88-1.86-12h0V858.1h0l32.88-37.4,17.42,34,35.78,3.14h6.74l21.84,9.52,25.91,42.87L1750.62,900l8,18.47,47.86-1.74,82.25,63.43-3.37,17.89,18.12,15.21,16.5-7.08,48.21,18.47,44.49,50.18h0l.7,30.09-19.64,18.7,15.45,20.56,23-.69,9.52,25.44-34.38,49.37L1973.78,1208l37.52,37.76-26,52.74,5.12,43.09,15.33,3.26L1992.37,1392l15.8,41.71-22,20.56H1977l-71.1,34.85-9.41,43.68-22.3,10.11-1.28,24.74,31.13,29.51-36.94,8-15.91,64.47,38.1,18.94-.47,24.51-43.21,17.19-7,15.8,13.59,13.13-3.48,30.78,25.67-12.19-7.44,16.84,18,7.9-2.9,21.26-20.45,25.09-25.32,3.95-14.53,42.64-74.11,6.62-10.22,13,18.93,19.52-61.8,11.15-2.67,13.36-56-26.84L1624.58,1959l-27.18,7.09-28.7-18.94-8.59-28.23-30.32,8.48,2.32,19.29-17.19,15.33-34-15.33-10.34,47.63-59.71-2.79-25.21,41.35-37.29,6.86-30.43,54-24.28-33.58-47,6.39-13.36,41-25.32-5.92-12.78-27-27.42,4.65-.23,11.39h0l-13.24-11.85,6.73-15.8-58.2-16.27-.46-28.69-16.26-6.74-14.88,14.52-7-13.12,48.55-44.73-8.71-19.17,23.81-8.71-8.36-24,14.64-5.11-1.28-24.74,45.65,2.9-6.62-15.1,12.09-4.41-19.75-19,9.4-9-37.87-16.85,17.43-1.39-5.81-20.21-24.28-10.8-8.83,16.61-19.51-9.41-14.87,19-36.83-.35-27.76-21.72-18,23.93-91.77-77.84L920,1700l-9.29-37.63-79,2.2-15,15.8,4.18-20.21-68.77-29.39-26.26,32.18-17.31-8.13h-10.1l-17-41.71-25.68,10.57-25-19.51,26.72,6.5,3.95-32.87-44-3.49-34.16-40-40.31,37.06-13.24-2.79-78.65-93.17,30.67-36.59-47.4-33.57L462,1327.77l-14.64-5.46,27.18-46.12-8.24-28.81,15.45-14.52-34.39-50.65,5.92-15.45,38.22.35-10.68-41.7h0l.35-2.56h0l-.35-8.6h0l12.78-.69-5.23-34.74,48.56-1.39-17.78-25.33,10.69-16.49,25.56-3.84,19.74,19,10.81-12.08,23.81,16.15,46.59-8.25,18.24-18.82,47,34.86,9.41-39.5,13.71,4.41,6-15.91,34,11.73,21.26-15,7.2-34.27-15.1-32.76L747,935l-8-32.07,3.48-35.43L778.87,840l5.7-41.59,13.12-7.32h0l4.42.12h0l17.77-9.53-4.3,13.6,14.06,6.15,21.84-24.51,65.4-5.46,21.15-12,15.45-37.64,35.31,11.5h0l5.93.46h0l16.84-19L988.1,688.84,993.55,669,1020,647.14l21.14,13.48Z" transform="translate(2503 1342.71)"/>
  </g>
  <text class="cls-3" transform="translate(3451.15 1489.67)">VIGVAM<tspan x="0" y="53">seniorland</tspan></text>
  <path class="cls-7" d="M897.37,257.47c-28.8-41.75-34.14-46-34.14-61.38a38.05,38.05,0,0,1,76.1,0c0,15.35-5.34,19.63-34.14,61.38a4.76,4.76,0,0,1-7.82,0Z" transform="translate(2503 1342.71)"/>
</svg>
