<svg id="Vrstva_1" data-name="Vrstva 1" xmlns="http://www.w3.org/2000/svg" width="7352.7" height="4205.8" viewBox="0 0 7352.7 4205.8">
  <defs>
    <style>
      .cls-1 {
        fill: #e6e6e6;
        stroke: gray;
        stroke-width: 2.35px;
      }

      .cls-2 {
        font-size: 105px;
      }

      .cls-2, .cls-5, .cls-6 {
        font-family: Helvetica-Bold, Helvetica;
        font-weight: 700;
      }

      .cls-3 {
        letter-spacing: -0.07em;
      }

      .cls-4 {
        letter-spacing: 0em;
      }

      .cls-5 {
        font-size: 100px;
      }

      .cls-6 {
        font-size: 105.04px;
      }

      .cls-7 {
        fill: #109534;
      }

      .cls-8 {
        fill: #fff;
      }
    </style>
  </defs>
  <g>
    <path id="CZ-JC" class="cls-1" d="M-762.58,1234.74l18.5,9,43.6-30.39,20.3,27.5,33.64-24.14,9.13,19.46,20.18-2.16-8.17,11.89,44.08,10.09,19.22-28.35,27.87,11.17,7-21.26,16.82,9.13,18.26-34.47-5.65-19.22,15.25,3.84,16.94-19.22,37,5.29-.84,46.72,31.47.72,5.53-12.37,20.18,13.81-4.21-17.77,30.63,14.29,50.7-13,14.65,9.37,18.74-51.41,51.77-5.89,27,36.28,7.33-8.53,30.87,17.65-2.88,20.67,10.08-10,27.88,10.21,22.22-27.87,29.19,10.33-8-35.92,22.22,27.87,17.9-12.13,23.06,29.55,13.82-23.91,90.09,23.91,31.47-21.26-7.81,42.76,56.34-2,13.69,26.67,3.49-26,35.43-32.19L291,1176.36l-15.25-31.59,8.4-49.61,18.27,3.36-4-16.7,21.62-7.68,5.29-19.83,13,27.27h8.41l28.59,4.93,34.71,44.68,11.3-21.14,23.06,2.52,15.37,55.86L488,1183.69h0l10.69-3.25h0l5.77-6.84h0l11,43.12-39.52-.36-6.12,16,35.55,52.37-16,15,8.53,29.79-28.1,47.68,15.13,5.65L456.54,1463l49,34.72-31.71,37.83,81.32,96.34,13.7,2.89,41.68-38.32,35.31,41.32,45.53,3.6-4.08,34-27.63-6.73,25.82,20.18L712,1677.87,729.58,1721H740l17.9,8.41,27.15-33.27,71.11,30.39-4.33,20.9,15.5-16.34L949,1728.8l9.61,38.92-15,44.21,94.89,80.48,18.62-24.75,28.71,22.47,38.08.36,15.38-19.7,20.18,9.73,9.13-17.18,25.1,11.17,6,20.9-18,1.44,39.16,17.42-9.73,9.25,20.42,19.7-12.49,4.57,6.84,15.61-47.2-3L1180,1986l-15.14,5.29,8.65,24.87-24.62,9,9,19.82-50.2,46.25,7.2,13.57,15.38-15,16.81,7,.48,29.67,60.19,16.81-7,16.34,13.69,12.25h0l-20.42,10.69-8.28,22.35,11.4,1.56-21.5,6.6-10.33,25.71h0l-28.23-8.41-14.65-38.08-35.56-25.58-13.45,10.93-33.39-10.33-63.55-50-75.44,2.4-20.06-24.14-18.74,68.1-40.12-10.81-38.19,28-31.36,1.2,9.49-31.35-20.78-31.59,6.37-20.78-96.34-10.21-7.69-26.91-70,.84,1.68,38.68L552,2137.58,569,2244.73l-8.41,48.65-13.94,2.4,14.3,50.93-13.46.6-20.3,72.8,29.07,31L551.92,2468l-22.34,17.3-73.4-19.7-8.05-16.81-77.24,2.28-1.44,74.23L281.28,2602l-16,60.06,9.5,81-21.38,30.87-39.89.84-17.77-45.89-26.19,5.41L155.63,2698l-54.29,39.88-17.78-17.18-46-3.6L2,2666.12l-28.23,8.52,12.61,29.68L-41,2763.78l-46.84-7.69,2.16,34.36-34.12-4-25.82,37L-155.84,2804l-57.3-28.47-32.31,6.36-54.78-25.58-65-7.81-17,13.93-21.87-4.92.6-12.49-31.95,7.68,1.8-19-29.19-10.33,5.89-25.23-19.22,3.12-20.66-20.78,15.61-22.58,30.52.12,7.32-35L-471,2619l-33.64-52-50.93-8.29-89.49-88.53L-711.89,2459l2.16-38.68-23.78-52.26-31.23-9.25-28-83.48-24,13.69-47.93-3.72-53.21-96.7,7.81-16.57-23.07,18.13-30.51-53.69-32.19,4.2h0l-15.37-29.67,8.16-55.49,30.15-51.54,17.66,9.61,17.42-18.5-6.49-54.17-19.7-27.39,18.86-5.77-9.12-30.27,11.53-23.66-12.14-8.53,45.29,16.82,30.27-38.56,39-6.61-10.21-4,7.81-35.68,29.67-13.69-29.43-40.84h0v-7h0l7.09-23.19,12,3.61-4.81-13.93,21.62,2.52,3.85-24.39-23.67-.48-7.68-35.55,29.31,2.4,8.88-23.79-16.57-10.69,2.76-19.94,54.18-23.42-3.37-27.87,23.07-38.2-34.36-57.3,5.29-38.56,25.7-20.06-24.26-30,5-53.33-22.46-3.6,4-12.62h0v-6h0Z" transform="translate(2582.24 1380.06)"/>
    <path id="CZ-JM" class="cls-1" d="M3454.44,2331.09l-52.62,24.15-8.65,23.06-48.65,15.5-33.27,1.92-68.95-50.33-60.9,51.77-35.32,1-47-50.81-16.69,4.57L3053,2322.57l-90.46-27.15-44.2,49.73-47.45,24.51-23.9,73-48.41,33L2751,2564l10.57,24.63-43.48,43.48,5.64,34.48-37.48,51.29-24.38-10.21,9.49-32.55L2644,2551.76l-24.38-9-13.46,19-36.52-8.65-36.15,18.26-46.37-16.69-11.41-26.79-24-9-46.6,16.09-19.82-86.84-75.92-1.81-57.9-52.25-23.06,24.63-54.54-12.38L2152.19,2417l-15.5,55.74-60.3,60.42-21.14,2.29-19.94-31.36-10.81,25L1965,2512.84,1776,2506.6l-118.93-55-46.72-43.6,7.32-29.55-16.33-7.45-10.21,13.69-15.26-32.07-27.63,7-.72-13.34,13.46,6.61-7.93-15.62-13.1,10.7L1528.51,2318l-10.81,12.49L1493,2318.85l10.33-13-13.7-16.33-65.71,4.44-29.06,38.2L1348.45,2317l-18.74,8.77-81-67.15h-42.64l-40.61-19.58h0l10.33-25.7,21.51-6.61-11.42-1.44,8.29-22.46,20.54-10.69h0l.24-11.66,28.35-4.8,13.09,27.87,26.31,6.12,13.82-42.4,48.64-6.61,25.11,34.6,31.35-55.74,38.56-7.08,26.07-42.77,61.74,2.76,10.69-49.25,35.2,15.86,17.78-15.86-2.41-19.94,31.36-8.76,8.77,29.19,29.78,19.46,28.11-7.33,11.78-27.63L1757,2036l2.76-13.94,63.9-11.53-19.58-20.18,10.57-13.33,76.64-7,15-44,26.18-4.09,21.15-26,2.88-22-18.62-8.17,7.57-17.41-26.55,12.61,3.6-31.83-14-13.58,7.21-16.45,44.68-17.78.48-25.35-39.4-19.58,16.46-66.67,38.2-8.28L1943.78,1631l1.32-25.59,23.18-10.45,9.61-45.17,73.51-36H2061l22.59-21.27-16.34-43.12,13.82-48.77-15.86-3.36-5.17-44.57,26.79-54.53-38.8-39,34.72,10.69,35.55-51.06-9.73-26.3-23.78.72L2068.7,1172l20.3-19.34-.6-31.12h0l16.22,14.42,11.77-36.76,27.39-7.57,4.08,20.18,46.49-21.86,18.74,16.82,38.08.48,16.34-67.87,54,16.58,19.58-18.38,29.79,20.78,15.86-13.21,37.47,6.48,83.25,44.57,30.51-4.33h0l-17.18,13.82,7.33,28.35-54.05-13.21-9.73,65.1,104.74,19.22-24.26.84-6.25,30.87-18.74,5,10,87.69,23.07,9.49,10.81,25.1-30.51,12.86-4,27,68.47,51.29,35.2-35.07,21.26-52.25-33.39-76.64,24.38-24.15,39.4,8.89,49,108.47,15.26,6,.72,44.56,44.8,12.62,11.29-30.27,7.69,20.66-32,25,2.88,23.31L2901,1549.7l21.14,83.37h0l-32,49,19.46,23.66-11,26.67,31.59,40.12-22,25.22,42.52,2.77,13.1-16.46,5.52,15.26-16.58,60.06-38.92,8.16-9.73,49.13-29.79,1.33-4.08,41.68,37.12,6,75.8-30.63,19,45.17-10.69,53.69,31-10.45,1.08,12.74,16.45-4.93,10.09,32.91,64.39-1.8,26.91,15.5-7,45.88,25,6.13,19.22-13,41.93,52.61,35.67-19.94,18.14,9,16.58-18.14,11.41,24.75,44.33,10.57-10.82,40.84,67.87,20.06Z" transform="translate(2582.24 1380.06)"/>
    <path id="CZ-KA" class="cls-1" d="M-1711.55-310.4l61,44.81h0l29.07,24.5,49.74-7.44,28.82,20.9,18.26-14.78,18.14,17.66,19.22-3.12-.36,39.76,19.1,20.06,19.94-21,53.81,16.58,28.11-19,29.79,43.12-11,29.19h-2.64l9.61,35.91-19.46,38.45,20.18,4.56,2.4,39.16-16.09,10.21,36.63,26.55L-1341,68.23l30.39,4.08,15.14,63.19,13,.48-4,18.62-19.47-.48,18.5,33.75-49.73-7.69h0l-.6,1.33h0l-7.44,12.49,17.29,13.81,30.75-3.6,30.51,47.93h0l-21.5.48-4.44,37.12,22.7,4.2-18.62,37.84-52.85,5,.72,87.81-34.24-9.13-17.29-24.74-6.25,11.53-21.74-24.86-56.94,1.08-11.29-17.78-85.77,81.08-14.29-5.52-5.89,19.34-43.48,8.16h0v13.1h0l6.6,38.32-32.91,31.71-12.61-4.57,3.84,10.45L-1707,530.46l-47.57,17.42-46.37-26.43-23.54-1.32-16.22,19-12.85-8.05h0l.36,2.16h0l-20.3-2.16-14.06,18.14-29.07-5.29,10.09,23.79-43,5.28,8.53,28.95L-1978.34,560l-27.39,5.89-28.59,32.43-47.21-19.94h0l-6.72-28.35-79.88-35.8,30-47.68-10-15.5-32.08-23.42-30.75,17.77-1.08-30-31.35-4.21L-2245,392.8l-35.68-2.52-32.55-37.48-10.93,11.89-11.41-34.23-61.26-9.37,15.13-30.51L-2411,255.14l-18,5.29-34.59-25.35-5.89-55.62,23.42-44.56-29.07-43.73,8.77-7.57-15.37-.84L-2491,58.5l-15.86,4.57-10.45-41.93-25,4.69L-2580.87-2l6.72-22.1,45.89-22.47-22.82-36.51,6.72-15.5-26.42-19.7,90.57-7,16.58,27.51,1.2,56.94,58.74,3,12.13,34.48-22.58-13.82-6.25,21.51,58.74,42.52-20.42,41,16.34,33.63,51.05,6.85-14.66-14.77,16.58-18.26-16.58-25,12.74-20.06-4.69-38.68,31.71-.6-7.8-34.47,20.06-38.56,30.39-13.21.24-49.26,34.59-1.2,11.41-32.31,29.43-22.58,22.59,9.25-2.77-36.4L-2124-252l174.18-33.87,36.64,33.27,31.23-59.82,65-28.83,16.34,30.64,9.85-48.42Z" transform="translate(2582.24 1380.06)"/>
    <path id="CZ-KR" class="cls-1" d="M1186.64-900.08l47.57,1.09,81.93,36.39,28.11,30.87,79.28-9.49L1463.17-863l39.88,79.76,10,58.38,25.22,5.89,79.76-35.2,35.2,12.5,12.25,67.74,22,24.75-38.32,28.47,39.65,24.74,21.5-25.58,16.34,6,10.21-49.25L1775-705.6l73,30.15,18.62,30.51,34-11.53,17.42-63.3,46.37,5.28,8.65,13.34,62.46-2.89,85.89,94.18,24.74,48.05-43.12,17.41,6.72,35.08L2084.92-499l14,23.67-43.48,45.4-17.18,10-34.71-18.62-19.46,46-39.52-.36-3.73,21.38-35.79,13.46,9.85,27.62-19.46-14.65-18.74,32.31,16.57,37.24,29-5.41,16.82,15.38L1932.73-251l17.53,6.72,17.66,43.12L1995.31-228l61.14,5.88,1.44,52,22.47,33.63L2098-120.24l39.65-2.89L2195-27.51l76,73.16-.12,85.64,29.91,28.59-4,17.78h0l-13.34,7.69-88.29-45.77-18.86,48.65-51.53,30.39L2092,220.31l-18.38,27.38-37.48,13.58,13.09,27.15-47.81,27.38,23.43,35.32L1970,333.34l-36.63,14.18-1.09-21.63-7.8,15.62-47.33,12.13-30.63-38.44-32.32-1.32L1784.61,278l-39-5.52-12-42.65-57.78.61.12-55.86L1655,173.1l-.12-19.7-55.49-3.85-24.51-19-.12,11.42-32.07,3.36-1.92,25.83-35-.61-20.06,28-33.16-14.89,6-34.24L1420,124.21l-36.88,23.3-1,31.23-15.73,13.58-22.34-7.81-17.9,23.18L1282,182.23l-2.52,13.09-53.58-10.81,5.77,10.57-17.18-.84-19.7-28.47-17.17,26.55-15.74-10.93-16.58,9.12-.6,31-35.67,4.92h0V234h0l-38.44,23.06-12.14-15.73h0l3.61-30.63-32.8-27-15,9.13-21.14-18.26-36.88-.6,28-17.06-19.46-18.62,43.6-48.53-5.52-37.6-21-16.81L978.11,1.68,995.41-11,988.2-61.26,959-88.17,910.84-56.58l-44.68-21L835.53-64.39,802.61-80.24,812.82-120l-37.59-16,7.68-19-62.82-9.73-9.25-19.82,11-10.93L689.94-219l15.38-20.9,26.78,3-5.76-26.79,22.22-8.16-2.28-51.06-26.19-21,15-40.12-33.87-48.41,33.64-33.87h0l84.92,48.16,20.54-5L836-439.41l30.75-32.91L917-446.61l26.43-3,35.43,30.15,11.78-22,13.57,48.17,54.05-15,11.06-18.5-17.06-37.36,44.8-19.34-.72-22.95,19.94,12.62-2.16,24.74,5.53-12.13L1160-450.7,1188.69-472l34,27.75L1218-462.59l46.6-3.6-23.9-46.61-20.78-10.57,12-4.81L1214-541.51l8.53-12.61-24.5-11.66,33.51-56.93-40-39L1210-688.3,1183.4-789.8,1200.94-830l-38.44-38.32L1157.58-905h0Z" transform="translate(2582.24 1380.06)"/>
    <path id="CZ-LI" class="cls-1" d="M600-1324.35l21,20.18,17.42-.36,6-17.54,47.45,20.3-.12,37,40.24-3.72.48-33,29.07-15.5,2.28,57.66,19.82,10.93,55.62-31.47-2,22.7,38.2,9.85.6,30.63L894.87-1203l-26,37.48,10,72.08L913.61-1044l48.89,18.38L977-999.54l5.77,97.78,23.78,4.09,46.13-55.5L1157.58-905h0l4.92,36.64L1200.94-830,1183.4-789.8,1210-688.3l-18.38,26.55,40,39-33.51,56.93,24.5,11.66L1214-541.51l17.9,13.33-12,4.81,20.78,10.57,23.9,46.61-46.6,3.6,4.68,18.38-34-27.75L1160-450.7l-40.36-30.51-5.53,12.13,2.16-24.74-19.94-12.62.72,22.95-44.8,19.34,17.06,37.36-11.06,18.5-54.05,15-13.57-48.17-11.78,22L943.4-449.62l-26.43,3-50.21-25.71L836-439.41l4.32,16.22-20.54,5-84.92-48.16h0l-47.93-16.34-6.61-37.48L647.9-548.36,620.15-538l-36.88-67.51-32.55,3.61-8.29,18.14L495.22-630l-17.9,3.24,8.17,16.58-20.78,8.89,7,24.38-63.79,28.83,3.61,23.67L389.39-487l-19.7,15-11.05-9.37-13.45,35.92-65.83-14.9-7.93,33.52L242.84-415l-1.68,19.58L202.6-403,193-392.08l-15-13-22.47,23.9L132-383.55l-13.45-62.82L85.6-421,46-444,35.39-414.78l-18.62-22.1h0l-13.45-36L-29.59-478l-38-99.7-28.23-20.42-21.86-47.81,2.4-48.41-21-1.8,6.84-30.63,32-26.31-.6-49.73,16.57-6.36h0l9.49-3.49h0l12.13-23.18L-57.22-824l15.85-5.52L-55.3-841l11.41-40.12,32.31-24.62-10.33-9.37,10.57-34.48-15-9.25,34.47-8.41,52.5,34.12,30.63-2.4L109-1004.34l37.72-5.41,17.89-29.67h0l75.44,34,19.94-5.17,11.77,31.47,27.75-10.45,27.39,17.06,32.07-4.8,36.4-87.94,20.54,6.25,22.34-14.29,27.51,17.9,3.84-14.3,63.79,23.55,46.49-7.93-8.41-43,13.33-23.18-18.38-30.15,26.67-27.51,8.53-48.29-16.1-31.59-20.42,12.73-21.5-21.26,18.14-35.19Z" transform="translate(2582.24 1380.06)"/>
    <path id="CZ-MO" class="cls-1" d="M3551.37-89.49,3567-86.13l-29.79,71,43.12,35.55-7,50.09-42.77,1.2-13.69,35.56L3404,132.14l-10.45,17.53,55.26,54.3,7,27.87,28.83,12.73,7.08-22h15.38l35.8,32.07L3586.93,338l7.21,48.53,55,14.9-1.44,27.75,46.49,36.51,54.9-9,36.39-45.17,31.72-.48L3841,388.72l3.6,13.33,40.48,9.25-.72-52.73L3863,354.24l-16,14.66-6.24-14.06.72-24.62,31.11-21.39L3933,346.07l-4,18.38,18.5,16.22-9.73,14.65L3962,428.84l18.74-5.53,22.7,26.07,19.34-12.73-4.32-14.3,42,.6,8.89,44,68,12.49,4.93,49.61,40.36,33.63,12.25-26.06,11.17,8.65,12.73-15.14-20.3-23.9L4237,526.74,4303.1,524l3.12,16.58,61,40.6,47.69,4.81,15.14-12.37-7.69-29.07,35.68,7.56,7.21,27.63-14.78,41.56,42.76,31.48-23.54,15.49-13.93,41,63.42,135.26-3.84,41.2L4562.21,918l44-2.17,10,35.8,25.71,11.89,44-15.37,30.39,19.46-4.32,37.12,21.26,90,14,4-.6,56.94,22.47,18.62-19.1,48.89-61.75,22.34-30.27,29.19-82.88-30.27-65,19.58-19.34-3-6.24-20.19-33.16,3.85-33.15,27.15,11.41,41.2-59,51.41-17.06,45.05-41.08,28.23-35.92-6.61h0l-43-15.38,1.32-44.44-64.38-53.94-10.09-43.72-31.84-3.13-18.38,16-55-11.29-40.24-45.41-31.24,13-9.72-18.86-140.55,28.11L3806.88,1195l-62.83-1.2h0l-11.77-43.37-24.51-1.68-20.06,33.88-10.21-10.34-12.73-20.66,22.58-28.94-53.09-68.84-39.52-16.69-4.93-33.76-30.75-40.48-25.82,18.5-32-19.1-11.05-47.21,15.86-50.57h-2.65l-7.8,10.45-38-31h0l-8.65.48h0l-11.41-8.05-41.2,30.87-65.83-45.76-16.22,34.71-27.51-6.6-12.61-24.27-58.74,4.69-62.1-84.33L3138,735.39l-20.66,10.45h-5.52l-10.46,13.7-2-13.82-77.23-33.15-38,13.09,9.37-68.95-41.93,24-41.68-56.09,2.52-18.5h0l5.41.48h0l22.46-36.52-14.65-17.3,23.06-19.22h4.81l13.57-43.36-49-41.92,18.14-10.45-.36-41.32L3005.54,314l-14.06-69.19,31.35-31.59-9.6-35.8,46.36-49.85,20.54.12,7.69-25.11,32.43,5.17,41.69-64.14,42.64,22.22L3219-10.33h0l26.18-4.45L3247.35-37l40.72-8.64,55.37,9L3392.93-52l25.23,21.14,79.28-58.26-.24-46.13,32.43,12.13Z" transform="translate(2582.24 1380.06)"/>
    <path id="CZ-OL" class="cls-1" d="M2660-333.22,2722.29-289l25.34-15.86,59.23,35.44,62.46,3,1,19.7,35.32,21.14,65.58-8.17-3.12,36.16L3020-143.3l47.69,24.74,62.71-17.3-12,25.11,16.34,8.17L3120-60.66,3131-28.83l15-.72,2.16-27.75,27-1.56,33.76,9.49,10.09,39h0l-14.42,76.16-42.64-22.22-41.69,64.14-32.43-5.17-7.69,25.11-20.54-.12-46.36,49.85,9.6,35.8-31.35,31.59L3005.54,314l-69.67,82.53.36,41.32-18.14,10.45,49,41.92-13.57,43.36h-4.81l-23.06,19.22,14.65,17.3-22.46,36.52h0l-5.41-.48h0l-2.52,18.5,41.68,56.09,41.93-24-9.37,68.95,38-13.09,77.23,33.15,2,13.82,10.46-13.7h5.52L3138,735.39l15.38,10.33,62.1,84.33,58.74-4.69,12.61,24.27,27.51,6.6,16.22-34.71,65.83,45.76,41.2-30.87,11.41,8.05h0l8.65-.48h0l38,31,7.8-10.45h2.65l-15.86,50.57,11.05,47.21,32,19.1,25.82-18.5,30.75,40.48,4.93,33.76,39.52,16.69,53.09,68.84-22.58,28.94,12.73,20.66,10.21,10.34,20.06-33.88,24.51,1.68,11.77,43.37h0l-16.21,45.4-63-19.34-3.72,31.36-56.22,27,13.45,28.83-24.14,19.7-.84,24h0l-4.81,11.29-56.46-.48-30.15-41.8-29.31,10.81-1.56,28.58L3454.2,1339l-27.51,3.73,29.79,56-23.07,26.78-42.28,3.37-10.33-16.7-57.18,18.38-26.42-8.77,12.73,30.15-45.53,47.45-27.75-39.64-20.42,6-41.56-20.9-18.26,12.62,12.25-41.33-17.53-15.25-39,51.17,24.26,66.43-36.88,20.3-30.27,49-23.66,12.37-46.37-6.61-18.38,15.62-20.06-12.73-17.9,47.57-20.54-11.3h0L2901,1549.34l-116.76-63.18-2.88-23.19,32-25-7.69-20.66-11.29,30.27-44.8-12.62-.72-44.56-15.26-6-49-108.47-39.4-8.89-24.38,24.15,33.27,76.64-21.26,52.37-35.2,35.07L2529.25,1404l4-26.91,30.51-12.85L2552.92,1339l-23.07-9.48-10-87.69,18.62-4.93,6.25-30.87,24.26-.84L2464.27,1186l9.73-65.11,54.05,13.22-7.21-28.35,17.18-13.94h0l3.49-38,13.09-1.68-20.42-25,2.64-29.31,46.61-42.41,1.32-58.86-16.82-22.46-46.36,4.33,24.38-35.2-21.38-17.42,13.21-15.73-47.81-49,.48-35.92-26.78-18.5,2.28-52.85L2498,629.08l-60.3-207.81,38.08-3.72,1.8,10.81h0l5.17-7.93h0l15.37-29.67,48.17-24.63,3-46L2532,302.71l26.43-27.27L2539,236.88l23.79-13.81,42.88-103.43L2604.33,84h0l20.06-2.77,17.54-39,61.74.6,21.14-36.87L2750,53.94,2781.63,31l-28.23-44.8L2773-50,2754.6-91.41l-60.78-22.35-41-125.4-55-31.11,24.27-60Z" transform="translate(2582.24 1380.06)"/>
    <path id="CZ-PA" class="cls-1" d="M2602.65,83.73l1.68.24h0l1.32,35.67-42.88,103.43L2539,236.88l19.46,38.56L2532,302.71l17.3,17.42-3,46-48.17,24.63-15.37,29.67h0l-5.17,7.93h0l-1.8-10.81-38.08,3.72L2498,629.08,2466,653.83l-2.28,52.85,26.78,18.5L2490,761.1l47.81,49-13.21,15.73L2546,843.26l-24.38,35.2,46.36-4.33,16.82,22.46-1.32,58.86-46.61,42.41-2.64,29.31,20.42,25-13.09,1.68-3.49,38h0l-30.51,4.33-83.25-44.57-37.47-6.6-15.86,13.21-29.79-20.66-19.46,18.38-54.17-16.58-16.22,67.87-38.2-.48-18.62-16.94-46.49,22-4.08-20.3-27.39,7.57-11.77,36.76-16.22-14.42h0l-46-51.89-49.85-19.1-17.06,7.33-18.74-15.74,3.48-18.5-85-65.58-49.49,1.8-8.29-19.1-40.48,10.57-26.79-44.33L1727.68,897h-7l-37-3.25-18-35.19-34,38.67h0v8.41h0l1.92,12.38L1614,923l8.41,16.58L1577,949l-77.72-55.38,17.18-44.08-15.25,12.25-46.37-35.56-34.72,3.73,7.69-40.49-48.41,2.41-31.71-40.6-21.26,4.8-1.92-17.9-23.19-7.56-20.3,15.25-9.49-16.58-49.49,13.94-19.94-35.8L1117.94,653h0l-.12-61.87,25.7-7.45,17.9-42.52-22.46-24,16.21-34-72.91-38.2,11.65-28.35L1077,423.79l-.36-21.5-34.35,3.12L1045.5,392l-33-3.36-33.64-33.88L990.25,339l25.1,1.21-23.54-22.11,35.79-4.56-11-41.32,26.43-1.8-30.63-13.1,8.16-14.77,34.36,9.73,3.6-10.93h0l12.14,15.73L1109.05,234h0v-7.57h0l35.67-4.92.6-31,16.58-9.12,15.74,10.93,17.17-26.55,19.7,28.47,17.18.84-5.77-10.57,53.58,10.81,2.52-13.09,44.21,25.46,17.9-23.18,22.34,7.81,15.73-13.58,1-31.23,36.88-23.3,38.56,25.22-6,34.24,33.16,14.89,20.06-28,35,.61,1.92-25.83,32.07-3.36.12-11.42,24.51,19,55.49,3.85.12,19.7,20.9,1.44-.12,55.86,57.78-.61,12,42.65,39,5.52,29.55,35.92,32.32,1.32,30.63,38.44,47.33-12.13,7.8-15.62,1.09,21.63L1970,333.34l54.9,17.78-23.43-35.32,47.81-27.38-13.09-27.15,37.48-13.58L2092,220.31l32.79-1.69,51.53-30.39,18.86-48.65,88.29,45.77,13.34-7.69h0L2353,230.4l78.56,25.22L2475.92,191l40.48-17.05,31.95-78.8,11.17,4.92L2586,68.59Z" transform="translate(2582.24 1380.06)"/>
    <path id="CZ-ZL" class="cls-1" d="M4276.55,1431h0l-43-15.38,1.32-44.44-64.38-53.94-10.09-43.72-31.84-3.13-18.38,16-55-11.29-40.24-45.41-31.24,13-9.72-18.86-140.55,28.11L3806.88,1195l-62.83-1.2h0l-16.21,45.4-63-19.34-3.72,31.36-56.22,27,13.45,28.83-24.14,19.7-5.65,35.32-56.46-.48-30.15-41.8-29.31,10.81-1.56,28.58L3454.2,1339l-25.95,3,28.23,56.7-23.07,26.78-42.28,3.37-10.33-16.7-57.18,18.38-26.42-8.77,12.73,30.15-45.53,47.45-27.75-39.64-20.42,6-41.56-20.9-18.26,12.62,12.25-41.33-17.53-15.25-39,51.17,24.26,66.43-36.88,20.3-30.27,49-23.66,12.37-46.37-6.61-18.38,15.62-20.06-12.73-17.9,47.57-20.54-11.3h0l-31.95,49,19.46,23.67-11.17,26.79,31.71,40-22,25.22,42.52,2.89,13.22-16.46,5.52,15.25L2953,1859.13l-38.92,8.17-9.85,49.13-29.67,1.33-4.2,41.68,37.24,5.88,75.79-30.51,19,45.17-10.81,53.69,31-10.45,1.08,12.73,16.45-4.92,10.09,32.79,64.39-1.8,26.91,15.5-7,45.88,25,6.13,19.21-13.09,41.93,52.73,35.79-20.06,18.14,9.13,16.46-18.14,11.41,24.75,44.33,10.57L3336,2216.26l67.87,20.06,50.58,94.77h0l60.06-9.72,85.76-105.59,109.08-5.77,31.47-135.74,20.06-19.58,102.1-1.8,49.61-24.26,31.23-36.52,19.1-57.3-6-67.75,27.15-44.92-5.41-43.49,26.19-48.53-8.77-50,42-40.6-.36-25.7,87.33-16.46,109.07-46,41.32-44.68,8.05-52.62Z" transform="translate(2582.24 1380.06)"/>
    <path id="CZ-PL" class="cls-1" d="M-1266.62,252.14l24.63-6.73,10.93,27,23.07-25.23,17.89,40.36,40.73-19.21h0l22.58,46-18.14,1.56-15.86,49.25,38.56,7.57,13-23.06L-1078,348l12.73,17.89,29.91-16.57,23.06,17.18-36.63,7.56,21.86,24,33.15,5.64,18,25,60.66-1.68h6.13l15.74-10.57,24,8.52,35.92,54.9,50.93-1.44-4.32,42.16,42.88-2.16,30.27,24.63,22.46-1.09-14.89,30.64,17.65,69.07-28.46.36-10.69,61.86,12.85,33-21.5,17.78,10,34-17.9,32.55,20.3-6.85,19,18.74-41.08,19-21.51,40.72-26.66-22.58-44.21,24.38-25.82,34.84,9.24,34.23,21.27-16.45L-804,958.7l-41.56,10.57L-848,986.81l32.68,28.11-20.19,11.17,18.5,4.68-8.53,11.77,49.86,13.82-18,125.76,7.81-10.44,21.38,9.84,1.92,53.22h0l-14.3,26.67h0v6h0l-4,12.62,22.46,3.6-5,53.33,24.26,30-25.7,20.06-5.29,38.56,34.36,57.3-23.07,38.2,3.37,27.87-54.18,23.42-2.76,19.94,16.57,10.69-8.88,23.79-29.31-2.4,7.68,35.55,23.67.48-3.85,24.39-21.62-2.52,4.81,13.93-12-3.61-7.09,23.19h0v7h0l29.43,40.84-29.67,13.69-7.81,35.68,10.21,4-39,6.61-30.27,38.56-45.29-16.82,12.14,8.53-11.53,23.66,9.12,30.27-18.86,5.77,19.7,27.39,6.49,54.17-17.42,18.5-17.66-9.61-30.15,51.54-8.16,55.49,15.37,29.67h0l-46.73-2.4v43.84l-13.09,2.17-100.54-75.08-10.93-110.63-113-107.27-58.38,7.68-61.74-38.32-7.45-58.85-65.46-49.37,3-26.19-28.35-16.1-7.45-31.35-21.86-6.61-7.93-21.74-22.1-1.32-5.17-65.71-24.62-3-37.24-46.73-90.09-28.23-7.33,35.56-37-25.1-72.67-3.49-26-80-53.09-49.73-55.5-16.34-.6-31.47-25.22-39.64,11.41-77.6-8.41-14.89-16.1,9.85-34.47-19-32-136.34-35.07,2.52-6.85-114-37.24-1.2-49.37-27.51L-2242,851.79l-1.92-30.51L-2167,778l-8.53-40.6,11-41.92,25.35-4.09-.6-30.75,15.13-4.2,43.12-78.08h0l47.21,19.94,28.59-32.43,27.39-5.89,37.36,41.92-8.53-28.95,43-5.28-10.09-23.79,29.07,5.29,14.06-18.14,20.3,2.16h0l-.36-2.16h0l12.85,8.05,16.22-19,23.54,1.32,46.37,26.43,47.57-17.42,34.11,22.34-3.84-10.45,12.61,4.57,32.91-31.71-6.6-38.32h0v-13.1h0l43.48-8.16,5.89-19.34,14.29,5.52,85.77-81.08,11.29,17.78,56.94-1.08,21.74,24.86,6.25-11.53,17.29,24.74,34.24,9.13-.72-87.81,52.85-5,18.62-37.84-22.7-4.2,4.44-37.12Z" transform="translate(2582.24 1380.06)"/>
    <path id="CZ-PR" class="cls-1" d="M68.91,132.14,71,136h0l21.86,6.85h0l10.09,12.85h0L85.36,173.22,135.69,160l6.85,40.61,59.1,12.61,8.29,35.32,45.53,15.73-5.29,34.24-64.63,25.82,3.85,24.51L207.17,343h0l-5.41,27.27L215.58,389,203.68,412h0l-12.25-8.29-5.77,27.51L123,393.52,112,404.57l-16.94-10L82.48,410.82l-17.66-8.05h0l-.24,2h0l-1,17.3-32.07-1.32L-8.21,467.16-50,480.73l-23.91-8.53-5.16,46.61L-94.94,502l-48.29,6-13.69-18.5,20.66-16-18-4.68L-136.74,435l-38.08-8.17-4.57-57.29L-208.58,367l-7.69-39.4L-240,318.93l11.53-19.22,38.44-10.81-49.37-40-27.87-1.68L-230,225.83l28.47,1.8,23.3-26.54,12.86,1.56-5.41,23.3,54.78-2.88-7.81-35.8,13-18.14L-80.29,181-44,153.28.68,160.36l-4.21-10.81h0l-.36-8.77h0l55.38-14.89h0L68.43,122h0l-.84,7.45h0Z" transform="translate(2582.24 1380.06)"/>
    <path id="CZ-ST" class="cls-1" d="M16.77-436.88l18.62,22.1L46-444.09,85.6-421.15l32.92-25.34L132-383.67l23.54,2.4L178-405l15,13L202.6-403l38.56,7.45,1.68-19.58,28.59-11.77,7.93-33.52,65.83,15,13.45-35.92L369.69-472l19.7-15,22.11-37.48-3.61-23.67,63.79-28.82-7-24.39,20.78-8.89-8.17-16.58,17.9-3.24,47.09,46.25,8.41-18.14,32.43-3.6L620-538.14l27.75-10.21,32.31,28.1,6.61,37.48,47.92,16.34h0L701-432.56l33.88,48.41-15,40.12L746-322.89l2.28,51.06-22.1,8.16L732-236.88l-26.79-3L689.82-219l32.07,23.55-11,10.81,9.25,19.82,62.82,9.73-7.68,19,37.59,16L802.61-80.24,835.53-64.5l30.63-13.21,44.68,21L959-88.29,988.2-61.38l7.21,50.21L978.11,1.56l3.73,33.76,21,16.82,5.52,37.6-43.6,48.53,19.46,18.61-27.87,17.06,36.88.72,21.14,18.26,15-9.13,32.8,27-3.61,30.51h0l-3.6,10.93-34.47-9.85-8.17,14.9,30.63,13-26.43,1.8,10.93,41.32L991.81,318l23.54,22.1-25.22-1.2-11.42,15.74,33.64,33.87,33,3.36-3.12,13.46,34.35-3.25.36,21.63,16.94-7.21-11.65,28.35,72.91,38.2L1139,517.13l22.34,24-17.78,42.52-25.7,7.45.11,61.87h0l-34,40-21.86-13.94-27.39,22.71L1029,722.3l24.27,26.9-17.42,19.59h0l-6.25-.49h0l-36.51-11.89-16,38.92-21.86,12.38-67.63,5.64L865.08,838.7l-14.54-6.37L855,818.28l-18.38,9.85h0L832,828h0l-13.57,7.56-5.89,43.13L775,907.17l-3.72,36.63L779.67,977l52.85,6.48,15.5,34-7.33,35.44-22.1,15.37-35.2-12-6.24,16.33L763,1068l-9.61,40.72-48.65-35.91-18.85,19.34-48.17,8.52L613.06,1084l-11.17,12.49-20.42-19.7-26.43,4-11,17.06L562.37,1124l-50.21,1.32,5.4,35.91-13.21.85h0l.36,8.88h0l-.36,2.65h0l-5.77,6.84h0l-10.81,3.13h0l-28.1-15.14-15.38-56-23.06-2.53-11.3,21.26-34.71-44.8-28.59-4.81H338.1l-13-27.26-5.29,19.7-21.62,7.68,4,16.7L283.81,1095l-8.41,49.61,15.25,31.59L233,1193.42l-35.55,32.19L194,1251.68,180.26,1225l-56.22,2,7.69-42.76-31.35,21.14-90.09-23.9-13.82,23.9-23.06-29.55L-44.49,1188l-22.22-27.87,8,35.92-29.07-10.33L-110,1213.6l-27.86-10.21-10,10,2.89-20.66L-175.78,1175l-7.33,8.53-27-36.28-51.65,5.89-18.74,51.41-14.65-9.37-50.58,13-30.63-14.29,4.09,17.9L-392.49,1198l-5.4,12.38-31.47-.72.72-46.73-36.88-5.29-16.94,19.22-15.25-3.84,5.53,19.22-18.27,34.59-16.81-9.13-7,21.38L-562,1227.89l-19.22,28.35L-625.28,1246l8.17-11.89-20.18,2.16-9.13-19.58-33.52,24.15-20.3-27.51-43.6,30.39-18.5-9h0l-1.92-53.21-21.39-9.85-7.8,10.57,18-125.77-49.85-13.93,8.52-11.66-18.61-4.68L-815.2,1015l-32.67-28.11,2.52-17.54,41.45-10.57-29.67-11.41-21.26,16.45-9.25-34.11,25.82-34.84,44.21-24.5L-767.39,893l21.5-40.72,41.21-19-19-18.74L-744,821.4l17.9-32.55-10-34,21.5-17.78-12.86-33,10.69-61.86,28.47-.36-17.53-69.07,14.89-30.64-22.46,1-30.27-24.51-42.89,2.16,4.33-42.28L-833.09,480l-35.8-54.9L-893,416.59l-15.61,10.57h-6.25l-60.66,1.68-18-25-33.27-5.76-21.86-23.91,36.75-7.56-23.18-17.18L-1065,366l-12.73-17.9L-1109,349.8l-13,23.06-38.56-7.57,15.86-49.25,18.14-1.56-22.59-46.12h0l-4.2-14.54,21.14-17.06,40.36,4.21,8.53-44,21.62,8.29-11-25.35,14.06-10.08-5.53-30.4,14,1h4l45.52-44,25,10.69L-934,95.5-925.23,65l18,.36,41.08-40L-866,43l86.25-1.32,3.6-17.78,19.1,4.08,45.77-52.85,30.87,38.32,25.95-4.09,13.57-45.52,45.17-4.69,39.88-31.71-4-26.31L-517-92.73l-10.33-51.17,27.75-21.75,145.46,27,41.33-4.92,2.76-19.7L-239-135.73l6.25-11.66h0l1.92.36h0L-210-179.1l22,9h0l9-5.65h0l22.34-9.84L-111.16-174l14.78-75.68-21.87-56.46,20.91-11.17L-51-294.3l-12-15.49,17.06-15L-49-347.27l53.81,6.49-17.9-80.85,19.82-4.92-4.2-16.7ZM-3.53,149.55h0L.56,160.36l-44.69-7.08L-80.41,181l-30.51-11.78-13,18,7.69,35.8L-171,226l5.41-23.3-12.86-1.56-23.3,26.54-28.47-1.8-37.36,21.5,27.75,1.69,49.37,40-38.44,10.82-11.53,19.22,23.79,8.64,7.68,39.52,29.07,2.53,4.57,57.3,38.08,8L-154.76,469l18,4.68-20.79,16,13.7,18.5,48.29-6,15.86,16.82,5-46.61,24,8.53,41.69-13.69L31,420.79,63,422.11l1-17.3h0l.24-2h0l17.54,8.05L94.49,394.6l16.94,10,10.81-11.17,62.82,37.72,5.77-27.51,12.25,8.29h0L215,388.84,200.8,367.1l5.77-24.27h0l-17.66,5.89-3.85-24.51,64.51-25.82,5.29-34.24-45.53-15.74L201,213.1l-59.1-12.61-7-40.6L84.64,173.1l17.54-17.54h0L92.09,142.71h0l-22-6.73h0l-3.37-6.61h0l.85-7.44h0l-16.94,3.84h0l-55.38,14.9Z" transform="translate(2582.24 1380.06)"/>
    <path id="CZ-US" class="cls-1" d="M-143.95-1351.5l29.79-9.12,26.67,33.39L-54-1315.46l39.16-29.79,41.44,21.62,8.53-40.12L33-1321.34l35.56,9.25,3.72,22.7L104.58-1300,144-1249,106.14-1143.2l19,8.77,72.56-31.12,2.76,44.93L183.38-1107l-18.74,67.63h0l-17.89,29.67L109-1004.34,91.25-935.51l-30.63,2.4L8.12-967.23l-34.47,8.41,15,9.25-10.57,34.48,10.33,9.37L-43.89-881.1-55.3-841l13.93,11.42L-57.22-824l-2.65-11.77L-72-812.63h0l-9.49,3.49h0l-16.57,6.36.6,49.73-32,26.31-6.84,30.63,21,1.8-2.4,48.41,21.86,47.81,28.23,20.42,38,99.7,32.91,5.05,13.45,36h0L2-443.49l4.2,16.7-19.82,4.92L4.28-341l-53.69-6.48L-46.29-325l-17.06,15,12,15.38L-97.7-317.72l-20.78,11.17,21.86,56.46L-111.4-174.3l-45.52-11.65-22.47,9.85h0l-9,5.65h0l-21.86-9L-231-147.39h0l-1.92-.36h0L-239.21-136l-71.11-27.51-2.76,19.71-41.32,4.92-145.47-27-27.63,21.74,10.33,51.3L-560-99l4,26.31L-596-41.08l-45.17,4.8L-654.71,9.25l-25.95,4.08L-711.53-25-757.3,27.87l-19.1-4.08L-780,41.68-866.13,43l-.12-17.65-41.08,40-18-.36-8.77,30.51-41.8,11.65-25-10.69-45.41,44h-4.08l-14.06-1,5.65,30.4-14.06,10.08,11,25.35-21.62-8.29-8.53,44-40.48-4.21-21.14,17.06,4.21,14.54h0l-40.73,19.21L-1208,247.21l-23.07,25.23-10.93-27-24.63,6.73h0l-30.51-47.93-30.75,3.6L-1345.17,194l7.44-12.49h0l.6-1.33h0l49.73,7.69-18.5-33.75,19.47.48,4-18.62-13-.48-15.14-63.19L-1341,68.23l23.66-32.55-36.63-26.55,16.09-10.21-2.4-39.16-20.18-4.56L-1341-83.25l-9.61-35.91h2.64l11-29.19-29.79-43.12-28.11,19-53.81-16.58-19.94,21-19.1-20.06.36-39.76-19.22,3.12-18.14-17.66-18.26,14.78-28.82-20.9-49.74,7.44-29.07-24.5h0l-7.08-12.85,41.92-11.53,44-50.22,12.13-104.38,58.26,17.3,50.09-32.08,7.08,20.06,61.87,5.65,56.45-151L-1292-585l13.45,29.9,34.72-8.4,2.76-47,55.86-34.24-5-38.68,20.18,6,26.91,51.41,55.86,22.23,32-46.13,31-15.26-12.25-24.38,32.07-40.36-17.9-48.29,34.72-15.62,48.05,7.69,67.39-36.76,46.36,24.63,21.27-28.23L-789.73-815l40-14.9,85.53,14.06,6.13-25.83,39.28-3.24L-631-886.5l14.42-41.81,40.36,4.93L-557.89-953l38.44-20.54,43.72,26.91,51.17-13.7,12.62-24,147-58.26,10.21-46.73,36.15-13.21,40.24,19,49.49-14.9.73-15.61,40.36,6.12,11-65.22-93.7-32,6.85-9-15.13-10.09,27.5-13.09-3.6-19.58-44.81,13.57-26.54-19,1.08-35.19,22.1-10.57,5.41-22-13.34-20.55,44.69-27.86Z" transform="translate(2582.24 1380.06)"/>
    <path id="CZ-VY" class="cls-1" d="M1117.94,653l84.2,54.41,19.94,35.8,49.49-13.94,9.49,16.58,20.3-15.25,23.19,7.56,1.92,17.9,21.26-4.8,31.71,40.6,48.41-2.41-7.69,40.49,34.72-3.73,46.37,35.56,15.25-12.25-17.18,44.08L1577,949l45.41-9.37L1614,923l19.58-5-1.92-12.38h0v-8.41h0l34-38.67,18,35.19,37,3.25h7l22.58,9.84,26.79,44.33,40.48-10.57,8.29,19.1,49.49-1.8,85,65.58-3.48,18.5,18.74,15.74,17.06-7.33,49.85,19.1,46,51.89h0l.72,31.11-20.3,19.34,16,21.27,23.78-.72,9.85,26.3L2083,1269.7l-34.72-10.7,38.8,39-26.91,54.54,5.29,44.56,15.86,3.37-13.82,48.77,16.34,43.12-22.7,21.26h-9.49l-73.52,36-9.73,45.17-23.06,10.45L1944,1630.9l32.19,30.51-38.2,8.29-16.46,66.67L1961,1756l-.48,25.35-44.68,17.77-7.21,16.34,14.06,13.58-3.61,31.83,26.55-12.62-7.69,17.42,18.62,8.17-3,22-21.13,26-26.19,4.08-15,44.09-76.64,6.84L1804,1990.19l19.58,20.18-63.9,11.53-2.77,13.82L1699,2008l-11.77,27.62-28.11,7.33-29.67-19.58-8.89-29.19-31.35,8.77,2.4,19.94-17.78,15.86-35.2-15.86-10.69,49.25-61.74-2.88L1440.1,2112l-38.56,7.09-31.47,55.86-25.1-34.72-48.65,6.61-13.82,42.4-26.18-6.13-13.22-27.86-28.35,4.8-.24,11.77h0l-13.69-12.25,7-16.34-60.19-16.81-.48-29.67-16.81-7-15.38,15-7.2-13.57,50.2-46.25-9-19.82,24.62-9-8.65-24.87L1180,1986l-1.32-25.58,47.2,3-6.84-15.61,12.49-4.57-20.42-19.7,9.73-9.25-39.16-17.42,18-1.44-6-20.9-25.1-11.17-9.13,17.18-20.18-9.73-15.38,19.7-38.08-.36-28.71-22.47-18.62,24.75-94.89-80.48,15-44.21L949,1728.8l-81.68,2.28-15.5,16.34,4.33-20.9-71.11-30.39-27.15,33.27L740,1721H729.58L712,1677.87l-26.55,10.93-25.82-20.18,27.63,6.73,4.08-34-45.53-3.6-35.31-41.32-41.68,38.32-13.7-2.89-81.32-96.34,31.71-37.83-49-34.72L485,1382.85l-15.13-5.65,28.1-47.68-8.53-29.79,16-15-35.55-52.37,6.12-16,39.52.36-11-43.12h0l.36-2.65h0l-.36-8.88h0l13.21-.73-5.4-35.91,50.21-1.44-18.38-26.19,11-17.06,26.43-4,20.42,19.7,11.17-12.5,24.63,16.7,48.16-8.53,18.87-19.46,48.64,36,9.73-40.84,14.18,4.56,6.24-16.45,35.2,12.13,22-15.5,7.45-35.43-15.62-33.88-52.85-6.6-8.29-33.16,3.61-36.64,37.59-28.46,5.89-43,13.57-7.57h0l4.57.13h0l18.38-9.86-4.45,14.06,14.54,6.37,22.58-25.35,67.63-5.65,21.86-12.37,16-38.92,36.51,11.89h0l6.13.48h0l17.42-19.7-24.26-26.78,5.64-20.54,27.39-22.59L1083.94,693Z" transform="translate(2582.24 1380.06)"/>
  </g>
  <text class="cls-2" transform="translate(3038.39 1651.03)">VIG<tspan class="cls-3" x="180.88" y="0">V</tspan><tspan class="cls-4" x="243.17" y="0">AM</tspan><tspan x="0" y="126">seniorland</tspan></text>
  <text class="cls-5" transform="translate(2446.32 1730.03)">Praha</text>
  <text class="cls-6" transform="translate(4030.39 1774.37)">Pardubice</text>
  <text class="cls-6" transform="translate(4126.39 1310.37)">Hradec <tspan x="0" y="126.05">Králové</tspan></text>
  <path class="cls-7" d="M913.31,248.62C725.16-24.14,690.23-52.13,690.23-152.38,690.23-289.69,801.54-401,938.86-401s248.62,111.31,248.62,248.62c0,100.25-34.92,128.24-223.07,401a31.08,31.08,0,0,1-51.1,0Z" transform="translate(2582.24 1380.06)"/>
  <path class="cls-7" d="M1357.54,155a99.17,99.17,0,0,0-99.17,99.17c0,36.73,12.39,48.21,78.14,153.63a24.81,24.81,0,0,0,42.07,0c65.78-105.47,78.13-116.9,78.13-153.63A99.16,99.16,0,0,0,1357.54,155Zm0,239.66c-65.81-105.53-74.38-112.19-74.38-140.49a74.38,74.38,0,0,1,148.76,0C1431.92,282.35,1424.09,288,1357.54,394.66Z" transform="translate(2582.24 1380.06)"/>
  <path class="cls-7" d="M78.54-10A99.17,99.17,0,0,0-20.63,89.17c0,36.73,12.39,48.21,78.14,153.63a24.81,24.81,0,0,0,42.07,0c65.78-105.47,78.13-116.9,78.13-153.63A99.16,99.16,0,0,0,78.54-10Zm0,239.66C12.73,124.13,4.16,117.47,4.16,89.17a74.38,74.38,0,1,1,148.76,0C152.92,117.35,145.09,123,78.54,229.66Z" transform="translate(2582.24 1380.06)"/>
  <path class="cls-7" d="M1431.54-200a99.17,99.17,0,0,0-99.17,99.17c0,36.73,12.39,48.21,78.14,153.63a24.81,24.81,0,0,0,42.07,0c65.78-105.47,78.13-116.9,78.13-153.63A99.16,99.16,0,0,0,1431.54-200Zm0,239.66c-65.81-105.53-74.38-112.19-74.38-140.49a74.38,74.38,0,0,1,74.38-74.38,74.38,74.38,0,0,1,74.38,74.38C1505.92-72.65,1498.09-67,1431.54,39.66Z" transform="translate(2582.24 1380.06)"/>
  <path class="cls-8" d="M1064.69-229.55,944.32-275.81a16.38,16.38,0,0,0-11.54,0L812.39-229.55a8.21,8.21,0,0,0-5.33,7.69v19a8.21,8.21,0,0,0,8.22,8.21h246.53a8.2,8.2,0,0,0,8.21-8.21v-19A8.2,8.2,0,0,0,1064.69-229.55Zm-224.76,51.3v82.17h-8.21a8.22,8.22,0,0,0-8.22,8.22v24.65h230.09V-87.86a8.22,8.22,0,0,0-8.22-8.22h-8.22v-82.17h-32.87v82.17H955v-82.17H922.11v82.17H872.8v-82.17ZM1061.81-46.77H815.28a8.22,8.22,0,0,0-8.22,8.22v16.43a8.22,8.22,0,0,0,8.22,8.22h246.53a8.21,8.21,0,0,0,8.21-8.22V-38.55A8.21,8.21,0,0,0,1061.81-46.77Z" transform="translate(2582.24 1380.06)"/>
</svg>
