<?xml version="1.0" encoding="UTF-8" standalone="no"?>
<!DOCTYPE svg PUBLIC "-//W3C//DTD SVG 1.1//EN" "http://www.w3.org/Graphics/SVG/1.1/DTD/svg11.dtd">
<svg width="100%" height="100%" viewBox="0 0 1500 500" version="1.1" xmlns="http://www.w3.org/2000/svg" xmlns:xlink="http://www.w3.org/1999/xlink" xml:space="preserve" xmlns:serif="http://www.serif.com/" style="fill-rule:evenodd;clip-rule:evenodd;stroke-linejoin:round;stroke-miterlimit:2;">
    <g id="Vrstva-1" serif:id="Vrstva 1">
        <g transform="matrix(1,0,0,1,980.399,257.062)">
            <path d="M0,-257.062L-2.287,-255.378L1.436,-221.745L22.458,-204.928L27.984,-167.329L-15.62,-118.8L3.84,-100.179L-24.148,-83.123L12.727,-82.522L33.87,-64.264L48.885,-73.394L81.678,-46.366L78.075,-15.734L90.207,0L128.646,-23.064L128.646,-30.631L164.323,-35.554L164.925,-66.547L181.501,-75.676L197.237,-64.745L214.415,-91.292L234.114,-62.823L251.29,-61.982L245.526,-72.554L299.101,-61.742L301.623,-74.834L345.828,-49.37L363.727,-72.554L386.068,-64.745L401.805,-78.318L402.766,-109.55L439.644,-132.855L478.202,-107.63L472.195,-73.394L505.351,-58.5L519.601,-78.38L519.601,-257.062L0,-257.062Z" style="fill:rgb(230,230,230);fill-rule:nonzero;"/>
        </g>
        <g transform="matrix(1,0,0,1,1383.16,476.695)">
            <path d="M0,-329.184L-0.961,-297.952L-16.698,-284.378L-39.038,-292.188L-56.938,-269.004L-101.143,-294.467L-103.665,-281.376L-157.24,-292.188L-151.475,-281.615L-168.652,-282.457L-188.351,-310.926L-205.528,-284.378L-221.265,-295.31L-237.841,-286.181L-238.442,-255.188L-274.119,-250.265L-274.119,-242.698L-312.559,-219.634L-324.69,-235.368L-328.293,-224.437L-362.65,-234.167L-370.817,-219.393L-340.186,-206.299L-366.613,-204.499L-355.563,-163.175L-391.358,-158.612L-367.815,-136.509L-392.919,-137.711L-404.331,-121.974L-370.698,-88.099L-337.664,-84.735L-340.907,-71.282L-306.553,-74.405L-306.191,-52.903L-289.255,-60.111L-300.906,-31.761L-227.993,6.438L-236.038,23.305L116.835,23.305L116.835,-298.014L102.586,-278.133L69.43,-293.027L75.436,-327.263L36.878,-352.489L0,-329.184Z" style="fill:rgb(230,230,230);fill-rule:nonzero;"/>
        </g>
        <g transform="matrix(1,0,0,1,51.4881,453.737)">
            <path d="M0,-327.848L-51.488,-314L-51.488,-295.116L-50.81,-293.374L-51.488,-293.481L-51.488,3.844L-19.941,-32.947L12.133,-31.627L13.093,-48.925L13.335,-50.966L30.992,-42.918L43.603,-59.135L60.542,-49.163L71.474,-60.216L134.176,-22.497L139.945,-50.005L152.195,-41.716L164.088,-64.779L150.272,-83.518L155.678,-110.787L137.9,-104.901L134.056,-129.404L198.684,-155.231L203.969,-189.468L158.441,-205.201L150.154,-240.518L91.052,-253.13L84.206,-293.733L33.873,-280.521L51.413,-298.057L41.324,-310.91L19.46,-317.758L17.418,-321.6L16.098,-324.245L16.938,-331.692L0,-327.848Z" style="fill:rgb(230,230,230);fill-rule:nonzero;"/>
        </g>
        <g transform="matrix(1,0,0,1,0,500)">
            <path d="M0,-500L0,-360.606L50.648,-374.229L67.586,-378.073L66.744,-370.626L70.107,-364.019L92.09,-357.293L102.18,-344.44L84.642,-326.901L134.972,-340.113L141.94,-299.513L201.042,-286.9L209.328,-251.585L254.856,-235.848L249.571,-201.615L185.063,-175.786L188.908,-151.282L206.568,-157.167L200.8,-132.903L214.975,-111.159L203.083,-88.097L190.831,-96.386L185.063,-68.878L122.241,-106.596L111.43,-95.426L94.494,-105.395L81.759,-89.181L64.222,-97.228L63.981,-95.187L63.021,-77.889L30.949,-79.21L0,-43.226L0,0L1147.1,0L1155.17,-16.982L1082.26,-55.18L1093.91,-83.531L1076.97,-76.323L1076.61,-97.945L1042.26,-94.701L1045.38,-108.155L1012.35,-111.52L978.713,-145.394L990.125,-161.13L1015.35,-159.929L991.807,-182.031L1027.48,-186.597L1016.55,-227.918L1042.98,-229.721L1012.35,-242.695L1020.52,-257.589L1054.99,-247.738L1058.59,-258.67L1062.2,-289.18L1029.4,-316.208L1014.39,-307.079L993.248,-325.337L956.372,-326.059L984.239,-343.116L964.779,-361.733L1008.38,-410.263L1002.86,-447.86L981.835,-464.679L978.112,-498.435L980.238,-500L0,-500ZM0,-339.724L0.556,-339.636L0,-341.109L0,-339.724Z" style="fill:rgb(230,230,230);fill-rule:nonzero;"/>
        </g>
        <g transform="matrix(1,0,0,1,750,352.671)">
            <text x="0px" y="21.519px" style="font-family:'Helvetica';font-size:30px;">Kolín</text>
        </g>
        <g transform="matrix(1,0,0,1,-143.951,260.546)">
            <path d="M0,-1612.04L29.791,-1621.17L56.457,-1587.78L89.972,-1576.01L129.131,-1605.8L170.575,-1584.17L179.104,-1624.29L176.941,-1581.89L212.498,-1572.64L216.221,-1549.94L248.534,-1560.51L287.935,-1509.58L250.095,-1403.75L269.075,-1394.98L341.628,-1426.09L344.391,-1381.17L327.335,-1367.59L308.594,-1299.96L290.698,-1270.29L252.979,-1264.89L235.201,-1196.06L204.568,-1193.66L152.076,-1227.77L117.601,-1219.36L132.615,-1210.11L122.046,-1175.64L132.374,-1166.27L100.061,-1141.64L88.652,-1101.52L102.586,-1090.11L86.728,-1084.58L84.086,-1096.36L71.954,-1073.17L62.463,-1069.69L45.887,-1063.32L46.488,-1013.59L14.535,-987.285L7.689,-956.655L28.71,-954.852L26.307,-906.443L48.17,-858.635L76.397,-838.214L114.357,-738.512L147.271,-733.466L160.724,-697.43L145.949,-704.037L150.152,-687.34L130.333,-682.415L148.231,-601.572L94.538,-608.059L97.66,-585.597L80.604,-570.582L92.614,-555.205L46.247,-578.268L25.466,-567.097L47.328,-510.64L32.554,-434.843L-12.973,-446.494L-35.436,-436.643L-44.444,-430.999L-66.308,-440.008L-87.088,-407.936L-89.011,-408.296L-95.256,-396.524L-166.369,-424.032L-169.132,-404.331L-210.454,-399.405L-355.922,-426.433L-383.551,-404.693L-373.22,-353.4L-416.102,-359.525L-412.14,-333.218L-452.021,-301.627L-497.186,-296.822L-510.761,-251.294L-536.705,-247.211L-567.577,-285.531L-613.344,-232.677L-632.444,-236.76L-636.047,-218.863L-722.175,-217.541L-722.296,-235.199L-763.378,-195.197L-781.395,-195.559L-790.165,-165.046L-831.966,-153.395L-856.953,-164.086L-902.36,-120.122L-906.443,-120.122L-920.497,-121.083L-914.85,-90.69L-928.905,-80.601L-917.855,-55.255L-939.477,-63.544L-948.006,-19.578L-988.487,-23.785L-1009.63,-6.725L-1005.42,7.809L-1046.15,27.028L-1064.04,-13.333L-1087.11,11.893L-1098.04,-15.135L-1122.66,-8.407L-1153.17,-56.336L-1183.93,-52.733L-1201.22,-66.546L-1193.78,-79.04L-1193.17,-80.362L-1143.44,-72.674L-1161.94,-106.427L-1142.48,-105.947L-1138.52,-124.567L-1151.49,-125.047L-1166.63,-188.233L-1197.02,-192.316L-1173.36,-224.867L-1209.99,-251.415L-1193.89,-261.626L-1196.3,-300.787L-1216.48,-305.351L-1197.02,-343.791L-1206.63,-379.706L-1203.99,-379.706L-1192.93,-408.896L-1222.73,-452.02L-1250.83,-433.041L-1304.65,-449.617L-1324.59,-428.595L-1343.69,-448.656L-1343.33,-488.417L-1362.55,-485.294L-1380.69,-502.952L-1398.94,-488.178L-1427.77,-509.079L-1477.51,-501.632L-1506.57,-526.135L-1513.66,-538.988L-1471.74,-550.52L-1427.77,-600.732L-1415.64,-705.118L-1357.38,-687.82L-1307.29,-719.892L-1300.2,-699.833L-1238.34,-694.186L-1181.88,-845.181L-1148.01,-845.541L-1134.56,-815.631L-1099.84,-824.039L-1097.08,-871.007L-1041.22,-905.241L-1046.26,-943.922L-1026.09,-937.916L-999.178,-886.503L-943.322,-864.279L-911.368,-910.407L-880.375,-925.661L-892.629,-950.047L-860.556,-990.408L-878.454,-1038.7L-843.738,-1054.32L-795.691,-1046.63L-728.302,-1083.38L-681.935,-1058.76L-660.672,-1086.99L-645.778,-1075.58L-605.776,-1090.47L-520.249,-1076.42L-514.122,-1102.24L-474.842,-1105.49L-487.097,-1147.05L-472.68,-1188.85L-432.319,-1183.93L-413.941,-1213.6L-375.503,-1234.14L-331.778,-1207.23L-280.605,-1220.92L-267.992,-1244.95L-120.962,-1303.21L-110.752,-1349.93L-74.594,-1363.15L-34.354,-1344.17L15.136,-1359.06L15.857,-1374.68L56.218,-1368.55L67.268,-1433.78L-26.427,-1465.73L-19.578,-1474.74L-34.714,-1484.83L-7.206,-1497.92L-10.811,-1517.51L-55.617,-1503.93L-82.163,-1522.91L-81.081,-1558.11L-58.979,-1568.68L-53.573,-1590.66L-66.909,-1611.2L-22.223,-1639.07L0,-1612.04Z" style="fill:rgb(230,230,230);fill-rule:nonzero;"/>
        </g>
        <g transform="matrix(1,0,0,1,24.0734,3.26158)">
            <text x="43.145px" y="293.176px" style="font-family:'Helvetica';font-size:30px;">Praha</text>
        </g>
        <g transform="matrix(1,0,0,1,45.9946,6.69209)">
            <text x="1283.14px" y="45.696px" style="font-family:'Helvetica';font-size:30px;">Hradec</text>
            <text x="1283.14px" y="84.786px" style="font-family:'Helvetica';font-size:30px;">Králové</text>
        </g>
        <g transform="matrix(1,0,0,1,611.2,7.09567)">
            <text x="701.146px" y="348.959px" style="font-family:'ArialMT', 'Arial', sans-serif;font-size:30px;">Pardubice</text>
        </g>
        <g transform="matrix(1,0,0,1,-5.8943,8.83705)">
            <text x="962.146px" y="151.77px" style="font-family:'Helvetica-Bold', 'Helvetica';font-weight:700;font-size:30px;">Seniorland</text>
            <text x="962.146px" y="190.6px" style="font-family:'Helvetica-Bold', 'Helvetica';font-weight:700;font-size:30px;">V</text>
            <text x="981.628px" y="190.6px" style="font-family:'Helvetica-Bold', 'Helvetica';font-weight:700;font-size:30px;">igvam</text>
        </g>
        <g transform="matrix(1,0,0,1,-1.04873,-26.2049)">
            <text x="911.145px" y="460.402px" style="font-family:'Helvetica';font-size:30px;">Kutná hora</text>
        </g>
        <g transform="matrix(1,0,0,1,-7.16904,-28.6669)">
            <text x="1048.13px" y="300.185px" style="font-family:'Helvetica';font-size:30px;">Týnec nad</text>
            <text x="1048.13px" y="339.275px" style="font-family:'Helvetica';font-size:30px;">Labem</text>
        </g>
        <g transform="matrix(1,0,0,1,82.5905,5.46857)">
            <text x="470.145px" y="185.059px" style="font-family:'Helvetica';font-size:30px;">Poděbrady</text>
        </g>
        <g transform="matrix(1,0,0,1,3.83214,4.37818)">
            <text x="690.162px" y="66.078px" style="font-family:'Helvetica';font-size:30px;">Nymburk</text>
        </g>
        <g transform="matrix(1,0,0,1,910.768,186.73)">
            <path d="M0,96.698C-28.797,54.951 -34.143,50.666 -34.143,35.323C-34.143,14.307 -17.106,-2.73 3.911,-2.73C24.927,-2.73 41.964,14.307 41.964,35.323C41.964,50.666 36.619,54.951 7.822,96.698C5.932,99.428 1.89,99.428 0,96.698" style="fill:rgb(0,153,31);fill-rule:nonzero;"/>
        </g>
        <g transform="matrix(1,0,0,1,817.93,304.974)">
            <path d="M0,42.697C-13.32,21.34 -15.053,19.991 -15.053,14.264C-15.053,5.951 -8.313,-0.788 0,-0.788C8.313,-0.788 15.053,5.951 15.053,14.264C15.053,19.967 13.467,21.103 0,42.697M0,-5.806C-11.091,-5.806 -20.07,3.185 -20.07,14.264C-20.07,21.698 -17.562,24.021 -4.257,45.355C-2.294,48.503 2.296,48.499 4.257,45.355C17.569,24.01 20.07,21.697 20.07,14.264C20.07,3.174 11.079,-5.806 0,-5.806" style="fill:rgb(0,153,31);fill-rule:nonzero;"/>
        </g>
        <g transform="matrix(1,0,0,1,885.93,418.974)">
            <path d="M0,42.697C-13.32,21.34 -15.053,19.991 -15.053,14.264C-15.053,5.951 -8.313,-0.788 0,-0.788C8.313,-0.788 15.053,5.951 15.053,14.264C15.053,19.967 13.467,21.103 0,42.697M0,-5.806C-11.091,-5.806 -20.07,3.185 -20.07,14.264C-20.07,21.698 -17.562,24.021 -4.257,45.355C-2.294,48.503 2.296,48.499 4.257,45.355C17.569,24.01 20.07,21.697 20.07,14.264C20.07,3.174 11.079,-5.806 0,-5.806" style="fill:rgb(0,153,31);fill-rule:nonzero;"/>
        </g>
        <g transform="matrix(1,0,0,1,720.86,122.112)">
            <path d="M0,42.697C-13.32,21.34 -15.053,19.991 -15.053,14.264C-15.053,5.951 -8.313,-0.788 0,-0.788C8.313,-0.788 15.053,5.951 15.053,14.264C15.053,19.967 13.467,21.103 0,42.697M0,-5.806C-11.091,-5.806 -20.07,3.185 -20.07,14.264C-20.07,21.698 -17.562,24.021 -4.258,45.355C-2.294,48.503 2.296,48.499 4.257,45.355C17.569,24.01 20.07,21.697 20.07,14.264C20.07,3.174 11.079,-5.806 0,-5.806" style="fill:rgb(0,153,31);fill-rule:nonzero;"/>
        </g>
        <g transform="matrix(1,0,0,1,663.86,50.1116)">
            <path d="M0,42.697C-13.32,21.34 -15.053,19.991 -15.053,14.264C-15.053,5.951 -8.313,-0.788 0,-0.788C8.313,-0.788 15.053,5.951 15.053,14.264C15.053,19.967 13.467,21.103 0,42.697M0,-5.806C-11.091,-5.806 -20.07,3.185 -20.07,14.264C-20.07,21.698 -17.562,24.021 -4.258,45.355C-2.294,48.503 2.296,48.499 4.257,45.355C17.569,24.01 20.07,21.697 20.07,14.264C20.07,3.174 11.079,-5.806 0,-5.806" style="fill:rgb(0,153,31);fill-rule:nonzero;"/>
        </g>
        <g transform="matrix(1,0,0,1,109.895,197.012)">
            <path d="M0,61.578C-19.98,30.776 -22.579,28.832 -22.579,20.572C-22.579,8.583 -12.47,-1.136 0,-1.136C12.47,-1.136 22.579,8.583 22.579,20.572C22.579,28.797 20.201,30.436 0,61.578M0,-8.373C-16.636,-8.373 -30.105,4.594 -30.105,20.572C-30.105,31.294 -26.343,34.644 -6.386,65.411C-3.441,69.951 3.444,69.946 6.386,65.411C26.354,34.628 30.105,31.292 30.105,20.572C30.105,4.578 16.618,-8.373 0,-8.373" style="fill:rgb(0,153,31);fill-rule:nonzero;"/>
        </g>
        <g transform="matrix(1,0,0,1,1017.86,269.112)">
            <path d="M0,42.697C-13.32,21.34 -15.053,19.991 -15.053,14.264C-15.053,5.951 -8.313,-0.788 0,-0.788C8.313,-0.788 15.053,5.951 15.053,14.264C15.053,19.967 13.467,21.103 0,42.697M0,-5.806C-11.091,-5.806 -20.07,3.185 -20.07,14.264C-20.07,21.698 -17.562,24.021 -4.258,45.355C-2.294,48.503 2.296,48.499 4.257,45.355C17.569,24.01 20.07,21.697 20.07,14.264C20.07,3.174 11.079,-5.806 0,-5.806" style="fill:rgb(0,153,31);fill-rule:nonzero;"/>
        </g>
        <g transform="matrix(1,0,0,1,1377.44,277.743)">
            <path d="M0,42.697C-13.32,21.34 -15.053,19.991 -15.053,14.264C-15.053,5.951 -8.313,-0.788 0,-0.788C8.313,-0.788 15.053,5.951 15.053,14.264C15.053,19.967 13.467,21.103 0,42.697M0,-5.806C-11.09,-5.806 -20.07,3.185 -20.07,14.264C-20.07,21.698 -17.562,24.021 -4.257,45.355C-2.294,48.503 2.296,48.499 4.257,45.355C17.569,24.01 20.07,21.697 20.07,14.264C20.07,3.174 11.079,-5.806 0,-5.806" style="fill:rgb(0,153,31);fill-rule:nonzero;"/>
        </g>
        <g transform="matrix(1,0,0,1,1468.44,36.743)">
            <path d="M0,42.697C-13.32,21.34 -15.053,19.991 -15.053,14.264C-15.053,5.951 -8.313,-0.788 0,-0.788C8.313,-0.788 15.053,5.951 15.053,14.264C15.053,19.967 13.467,21.103 0,42.697M0,-5.806C-11.09,-5.806 -20.07,3.185 -20.07,14.264C-20.07,21.698 -17.562,24.021 -4.257,45.355C-2.294,48.503 2.296,48.499 4.257,45.355C17.569,24.01 20.07,21.697 20.07,14.264C20.07,3.174 11.079,-5.806 0,-5.806" style="fill:rgb(0,153,31);fill-rule:nonzero;"/>
        </g>
        <g transform="matrix(1,0,0,1,933.497,207.977)">
            <path d="M0,30.239L-37.732,30.239C-38.427,30.239 -38.99,30.802 -38.99,31.497L-38.99,34.012C-38.99,34.707 -38.427,35.27 -37.732,35.27L0,35.27C0.695,35.27 1.258,34.707 1.258,34.012L1.258,31.497C1.258,30.802 0.695,30.239 0,30.239M-33.959,10.115L-33.959,22.693L-35.216,22.693C-35.911,22.693 -36.474,23.255 -36.474,23.95L-36.474,27.724L-1.258,27.724L-1.258,23.95C-1.258,23.255 -1.821,22.693 -2.515,22.693L-3.773,22.693L-3.773,10.115L-8.804,10.115L-8.804,22.693L-16.35,22.693L-16.35,10.115L-21.381,10.115L-21.381,22.693L-28.928,22.693L-28.928,10.115L-33.959,10.115ZM0.442,2.263L-17.982,-4.817C-18.552,-5.031 -19.179,-5.031 -19.749,-4.817L-38.174,2.263C-38.664,2.447 -38.99,2.917 -38.99,3.441L-38.99,6.342C-38.99,7.037 -38.427,7.6 -37.732,7.6L0,7.6C0.695,7.6 1.258,7.037 1.258,6.342L1.258,3.441C1.258,2.916 0.932,2.447 0.442,2.263" style="fill:white;fill-rule:nonzero;"/>
        </g>
    </g>
</svg>
